<svg width="662" height="25" viewBox="0 0 662 25" fill="none" xmlns="http://www.w3.org/2000/svg">
<rect y="1" width="22" height="22" fill="#C75E67"/>
<path d="M37.8281 6C37.8281 6.85417 37.6719 7.58854 37.3594 8.20312C37.0469 8.8151 36.6185 9.28646 36.0742 9.61719C35.5326 9.94531 34.9167 10.1094 34.2266 10.1094C33.5339 10.1094 32.9154 9.94531 32.3711 9.61719C31.8294 9.28646 31.4023 8.8138 31.0898 8.19922C30.7773 7.58464 30.6211 6.85156 30.6211 6C30.6211 5.14583 30.7773 4.41276 31.0898 3.80078C31.4023 3.1862 31.8294 2.71484 32.3711 2.38672C32.9154 2.05599 33.5339 1.89062 34.2266 1.89062C34.9167 1.89062 35.5326 2.05599 36.0742 2.38672C36.6185 2.71484 37.0469 3.1862 37.3594 3.80078C37.6719 4.41276 37.8281 5.14583 37.8281 6ZM36.6328 6C36.6328 5.34896 36.5273 4.80078 36.3164 4.35547C36.1081 3.90755 35.8216 3.56901 35.457 3.33984C35.0951 3.10807 34.6849 2.99219 34.2266 2.99219C33.7656 2.99219 33.3542 3.10807 32.9922 3.33984C32.6302 3.56901 32.3438 3.90755 32.1328 4.35547C31.9245 4.80078 31.8203 5.34896 31.8203 6C31.8203 6.65104 31.9245 7.20052 32.1328 7.64844C32.3438 8.09375 32.6302 8.43229 32.9922 8.66406C33.3542 8.89323 33.7656 9.00781 34.2266 9.00781C34.6849 9.00781 35.0951 8.89323 35.457 8.66406C35.8216 8.43229 36.1081 8.09375 36.3164 7.64844C36.5273 7.20052 36.6328 6.65104 36.6328 6ZM39.4593 10V4H44.3538V10H43.2093V5.00781H40.596V10H39.4593ZM47.8814 10.1328C47.5012 10.1328 47.1574 10.0625 46.8502 9.92187C46.5429 9.77865 46.2994 9.57161 46.1197 9.30078C45.9426 9.02995 45.8541 8.69792 45.8541 8.30469C45.8541 7.96615 45.9192 7.6875 46.0494 7.46875C46.1796 7.25 46.3554 7.07682 46.5767 6.94922C46.7981 6.82161 47.0455 6.72526 47.3189 6.66016C47.5923 6.59505 47.871 6.54557 48.1548 6.51172C48.5142 6.47005 48.8059 6.4362 49.0298 6.41016C49.2538 6.38151 49.4166 6.33594 49.5181 6.27344C49.6197 6.21094 49.6705 6.10937 49.6705 5.96875V5.94141C49.6705 5.60026 49.5741 5.33594 49.3814 5.14844C49.1913 4.96094 48.9074 4.86719 48.5298 4.86719C48.1366 4.86719 47.8267 4.95443 47.6002 5.12891C47.3762 5.30078 47.2212 5.49219 47.1353 5.70312L46.0377 5.45312C46.1679 5.08854 46.358 4.79427 46.608 4.57031C46.8606 4.34375 47.1509 4.17969 47.4791 4.07812C47.8072 3.97396 48.1522 3.92188 48.5142 3.92188C48.7538 3.92188 49.0077 3.95052 49.2759 4.00781C49.5468 4.0625 49.7994 4.16406 50.0337 4.3125C50.2707 4.46094 50.4647 4.67318 50.6158 4.94922C50.7668 5.22266 50.8423 5.57813 50.8423 6.01563V10H49.7017V9.17969H49.6548C49.5793 9.33073 49.466 9.47917 49.315 9.625C49.164 9.77083 48.9699 9.89193 48.733 9.98828C48.496 10.0846 48.2121 10.1328 47.8814 10.1328ZM48.1353 9.19531C48.4582 9.19531 48.7343 9.13151 48.9634 9.00391C49.1952 8.8763 49.371 8.70964 49.4908 8.50391C49.6132 8.29557 49.6744 8.07292 49.6744 7.83594V7.0625C49.6327 7.10417 49.552 7.14323 49.4322 7.17969C49.315 7.21354 49.1809 7.24349 49.0298 7.26953C48.8788 7.29297 48.7317 7.3151 48.5884 7.33594C48.4452 7.35417 48.3254 7.36979 48.2291 7.38281C48.0025 7.41146 47.7955 7.45964 47.608 7.52734C47.4231 7.59505 47.2746 7.69271 47.1627 7.82031C47.0533 7.94531 46.9986 8.11198 46.9986 8.32031C46.9986 8.60937 47.1054 8.82812 47.3189 8.97656C47.5324 9.1224 47.8046 9.19531 48.1353 9.19531ZM55.1454 10.1211C54.5646 10.1211 54.0646 9.98958 53.6454 9.72656C53.2287 9.46094 52.9084 9.09505 52.6844 8.62891C52.4605 8.16276 52.3485 7.62891 52.3485 7.02734C52.3485 6.41797 52.4631 5.88021 52.6922 5.41406C52.9214 4.94531 53.2443 4.57943 53.661 4.31641C54.0776 4.05339 54.5685 3.92188 55.1336 3.92188C55.5894 3.92188 55.9956 4.00651 56.3524 4.17578C56.7092 4.34245 56.9969 4.57682 57.2157 4.87891C57.437 5.18099 57.5685 5.53385 57.6102 5.9375H56.4735C56.411 5.65625 56.2677 5.41406 56.0438 5.21094C55.8224 5.00781 55.5256 4.90625 55.1532 4.90625C54.8276 4.90625 54.5425 4.99219 54.2977 5.16406C54.0555 5.33333 53.8667 5.57552 53.7313 5.89062C53.5959 6.20312 53.5282 6.57292 53.5282 7C53.5282 7.4375 53.5946 7.8151 53.7274 8.13281C53.8602 8.45052 54.0477 8.69661 54.2899 8.87109C54.5347 9.04557 54.8224 9.13281 55.1532 9.13281C55.3745 9.13281 55.575 9.09245 55.7547 9.01172C55.937 8.92839 56.0894 8.8099 56.2118 8.65625C56.3368 8.5026 56.424 8.31771 56.4735 8.10156H57.6102C57.5685 8.48958 57.4422 8.83594 57.2313 9.14062C57.0204 9.44531 56.7378 9.6849 56.3836 9.85937C56.0321 10.0339 55.6193 10.1211 55.1454 10.1211ZM63.1456 6.49609V7.50781H59.8956V6.49609H63.1456ZM60.2237 4V10H59.0792V4H60.2237ZM63.962 4V10H62.8214V4H63.962ZM68.2719 10.1211C67.7094 10.1211 67.2185 9.99219 66.7992 9.73437C66.3799 9.47656 66.0544 9.11589 65.8227 8.65234C65.5909 8.1888 65.475 7.64714 65.475 7.02734C65.475 6.40495 65.5909 5.86068 65.8227 5.39453C66.0544 4.92839 66.3799 4.56641 66.7992 4.30859C67.2185 4.05078 67.7094 3.92188 68.2719 3.92188C68.8344 3.92188 69.3253 4.05078 69.7445 4.30859C70.1638 4.56641 70.4893 4.92839 70.7211 5.39453C70.9529 5.86068 71.0687 6.40495 71.0687 7.02734C71.0687 7.64714 70.9529 8.1888 70.7211 8.65234C70.4893 9.11589 70.1638 9.47656 69.7445 9.73437C69.3253 9.99219 68.8344 10.1211 68.2719 10.1211ZM68.2758 9.14062C68.6404 9.14062 68.9424 9.04427 69.182 8.85156C69.4216 8.65885 69.5987 8.40234 69.7133 8.08203C69.8305 7.76172 69.8891 7.40885 69.8891 7.02344C69.8891 6.64062 69.8305 6.28906 69.7133 5.96875C69.5987 5.64583 69.4216 5.38672 69.182 5.19141C68.9424 4.99609 68.6404 4.89844 68.2758 4.89844C67.9086 4.89844 67.6039 4.99609 67.3617 5.19141C67.1221 5.38672 66.9437 5.64583 66.8266 5.96875C66.712 6.28906 66.6547 6.64062 66.6547 7.02344C66.6547 7.40885 66.712 7.76172 66.8266 8.08203C66.9437 8.40234 67.1221 8.65885 67.3617 8.85156C67.6039 9.04427 67.9086 9.14062 68.2758 9.14062ZM75.1784 10.1211C74.5873 10.1211 74.0781 9.99479 73.6511 9.74219C73.2266 9.48698 72.8985 9.12891 72.6667 8.66797C72.4375 8.20443 72.3229 7.66146 72.3229 7.03906C72.3229 6.42448 72.4375 5.88281 72.6667 5.41406C72.8985 4.94531 73.2214 4.57943 73.6354 4.31641C74.0521 4.05339 74.5391 3.92188 75.0964 3.92188C75.4349 3.92188 75.763 3.97786 76.0807 4.08984C76.3985 4.20182 76.6836 4.3776 76.9362 4.61719C77.1888 4.85677 77.388 5.16797 77.5339 5.55078C77.6797 5.93099 77.7526 6.39323 77.7526 6.9375V7.35156H72.9831V6.47656H76.6081C76.6081 6.16927 76.5456 5.89714 76.4206 5.66016C76.2956 5.42057 76.1198 5.23177 75.8932 5.09375C75.6693 4.95573 75.4063 4.88672 75.1042 4.88672C74.7761 4.88672 74.4896 4.96745 74.2448 5.12891C74.0026 5.28776 73.8151 5.49609 73.6823 5.75391C73.5521 6.00911 73.487 6.28646 73.487 6.58594V7.26953C73.487 7.67057 73.5573 8.01172 73.6979 8.29297C73.8412 8.57422 74.0404 8.78906 74.2956 8.9375C74.5508 9.08333 74.849 9.15625 75.1901 9.15625C75.4115 9.15625 75.6133 9.125 75.7956 9.0625C75.9779 8.9974 76.1354 8.90104 76.2682 8.77344C76.4011 8.64583 76.5026 8.48828 76.5729 8.30078L77.6784 8.5C77.5899 8.82552 77.431 9.11068 77.2018 9.35547C76.9753 9.59766 76.6901 9.78646 76.3464 9.92187C76.0052 10.0547 75.6159 10.1211 75.1784 10.1211ZM30.7852 22V16H31.9531V18.5156H32.5156L34.4961 16H35.9414L33.6172 18.918L35.9687 22H34.5195L32.7109 19.6016H31.9531V22H30.7852ZM39.3762 22.1211C38.8137 22.1211 38.3229 21.9922 37.9036 21.7344C37.4843 21.4766 37.1588 21.1159 36.927 20.6523C36.6953 20.1888 36.5794 19.6471 36.5794 19.0273C36.5794 18.4049 36.6953 17.8607 36.927 17.3945C37.1588 16.9284 37.4843 16.5664 37.9036 16.3086C38.3229 16.0508 38.8137 15.9219 39.3762 15.9219C39.9387 15.9219 40.4296 16.0508 40.8489 16.3086C41.2682 16.5664 41.5937 16.9284 41.8255 17.3945C42.0572 17.8607 42.1731 18.4049 42.1731 19.0273C42.1731 19.6471 42.0572 20.1888 41.8255 20.6523C41.5937 21.1159 41.2682 21.4766 40.8489 21.7344C40.4296 21.9922 39.9387 22.1211 39.3762 22.1211ZM39.3802 21.1406C39.7447 21.1406 40.0468 21.0443 40.2864 20.8516C40.526 20.6589 40.7031 20.4023 40.8177 20.082C40.9348 19.7617 40.9934 19.4089 40.9934 19.0234C40.9934 18.6406 40.9348 18.2891 40.8177 17.9687C40.7031 17.6458 40.526 17.3867 40.2864 17.1914C40.0468 16.9961 39.7447 16.8984 39.3802 16.8984C39.013 16.8984 38.7083 16.9961 38.4661 17.1914C38.2265 17.3867 38.0481 17.6458 37.9309 17.9687C37.8164 18.2891 37.7591 18.6406 37.7591 19.0234C37.7591 19.4089 37.8164 19.7617 37.9309 20.082C38.0481 20.4023 38.2265 20.6589 38.4661 20.8516C38.7083 21.0443 39.013 21.1406 39.3802 21.1406ZM43.2242 22L43.2203 20.9883H43.4351C43.6018 20.9883 43.7411 20.9531 43.8531 20.8828C43.9677 20.8099 44.0614 20.6875 44.1343 20.5156C44.2073 20.3437 44.2632 20.1068 44.3023 19.8047C44.3414 19.5 44.37 19.1172 44.3882 18.6562L44.4937 16H48.6812V22H47.5367V17.0078H45.5757L45.482 19.0469C45.4586 19.5417 45.4078 19.974 45.3296 20.3437C45.2541 20.7135 45.1435 21.0221 44.9976 21.2695C44.8518 21.5143 44.6643 21.6979 44.4351 21.8203C44.206 21.9401 43.9273 22 43.5992 22H43.2242ZM51.6034 20.3633L54.2479 16H55.5057V22H54.3612V17.6328L51.7284 22H50.4588V16H51.6034V20.3633ZM62.1124 16V22H60.9718V16H62.1124ZM61.6163 18.7852V19.793C61.4366 19.8659 61.2465 19.931 61.046 19.9883C60.8455 20.043 60.6346 20.0859 60.4132 20.1172C60.1918 20.1484 59.9614 20.1641 59.7218 20.1641C58.9796 20.1641 58.3898 19.9831 57.9523 19.6211C57.5148 19.2565 57.296 18.6992 57.296 17.9492V15.9883H58.4327V17.9492C58.4327 18.2331 58.4848 18.4635 58.589 18.6406C58.6932 18.8177 58.8416 18.9479 59.0343 19.0312C59.227 19.1146 59.4562 19.1562 59.7218 19.1562C60.0734 19.1562 60.3976 19.1237 60.6945 19.0586C60.9939 18.9909 61.3012 18.8997 61.6163 18.7852ZM66.4721 22.1211C65.8809 22.1211 65.3718 21.9948 64.9447 21.7422C64.5202 21.487 64.1921 21.1289 63.9604 20.668C63.7312 20.2044 63.6166 19.6615 63.6166 19.0391C63.6166 18.4245 63.7312 17.8828 63.9604 17.4141C64.1921 16.9453 64.515 16.5794 64.9291 16.3164C65.3458 16.0534 65.8327 15.9219 66.39 15.9219C66.7286 15.9219 67.0567 15.9779 67.3744 16.0898C67.6921 16.2018 67.9773 16.3776 68.2299 16.6172C68.4825 16.8568 68.6817 17.168 68.8275 17.5508C68.9734 17.931 69.0463 18.3932 69.0463 18.9375V19.3516H64.2768V18.4766H67.9018C67.9018 18.1693 67.8393 17.8971 67.7143 17.6602C67.5893 17.4206 67.4135 17.2318 67.1869 17.0937C66.963 16.9557 66.6999 16.8867 66.3979 16.8867C66.0697 16.8867 65.7833 16.9674 65.5385 17.1289C65.2963 17.2878 65.1088 17.4961 64.976 17.7539C64.8458 18.0091 64.7807 18.2865 64.7807 18.5859V19.2695C64.7807 19.6706 64.851 20.0117 64.9916 20.293C65.1348 20.5742 65.334 20.7891 65.5893 20.9375C65.8445 21.0833 66.1426 21.1562 66.4838 21.1562C66.7051 21.1562 66.907 21.125 67.0893 21.0625C67.2715 20.9974 67.4291 20.901 67.5619 20.7734C67.6947 20.6458 67.7963 20.4883 67.8666 20.3008L68.9721 20.5C68.8835 20.8255 68.7247 21.1107 68.4955 21.3555C68.2689 21.5977 67.9838 21.7865 67.64 21.9219C67.2989 22.0547 66.9096 22.1211 66.4721 22.1211ZM73.0895 22.1211C72.5088 22.1211 72.0088 21.9896 71.5895 21.7266C71.1729 21.4609 70.8526 21.0951 70.6286 20.6289C70.4046 20.1628 70.2927 19.6289 70.2927 19.0273C70.2927 18.418 70.4072 17.8802 70.6364 17.4141C70.8656 16.9453 71.1885 16.5794 71.6052 16.3164C72.0218 16.0534 72.5127 15.9219 73.0778 15.9219C73.5335 15.9219 73.9398 16.0065 74.2966 16.1758C74.6533 16.3424 74.9411 16.5768 75.1598 16.8789C75.3812 17.181 75.5127 17.5339 75.5544 17.9375H74.4177C74.3552 17.6562 74.2119 17.4141 73.988 17.2109C73.7666 17.0078 73.4697 16.9062 73.0973 16.9062C72.7718 16.9062 72.4867 16.9922 72.2419 17.1641C71.9997 17.3333 71.8109 17.5755 71.6755 17.8906C71.5401 18.2031 71.4723 18.5729 71.4723 19C71.4723 19.4375 71.5387 19.8151 71.6716 20.1328C71.8044 20.4505 71.9919 20.6966 72.2341 20.8711C72.4789 21.0456 72.7666 21.1328 73.0973 21.1328C73.3187 21.1328 73.5192 21.0924 73.6989 21.0117C73.8812 20.9284 74.0335 20.8099 74.1559 20.6562C74.2809 20.5026 74.3682 20.3177 74.4177 20.1016H75.5544C75.5127 20.4896 75.3864 20.8359 75.1755 21.1406C74.9645 21.4453 74.682 21.6849 74.3278 21.8594C73.9762 22.0339 73.5635 22.1211 73.0895 22.1211ZM76.5693 17.0078V16H81.6318V17.0078H79.6748V22H78.5341V17.0078H76.5693ZM83.0871 22V16H85.5754C86.2525 16 86.789 16.1445 87.1848 16.4336C87.5806 16.7201 87.7786 17.1094 87.7786 17.6016C87.7786 17.9531 87.6666 18.2318 87.4426 18.4375C87.2187 18.6432 86.9218 18.7813 86.552 18.8516C86.8202 18.8828 87.0663 18.9635 87.2903 19.0937C87.5142 19.2214 87.6939 19.3932 87.8293 19.6094C87.9674 19.8255 88.0364 20.0833 88.0364 20.3828C88.0364 20.7005 87.9543 20.9818 87.7903 21.2266C87.6262 21.4687 87.3879 21.6589 87.0754 21.7969C86.7655 21.9323 86.3918 22 85.9543 22H83.0871ZM84.1848 21.0234H85.9543C86.2434 21.0234 86.47 20.9544 86.634 20.8164C86.7981 20.6784 86.8801 20.4909 86.8801 20.2539C86.8801 19.9753 86.7981 19.7565 86.634 19.5977C86.47 19.4362 86.2434 19.3555 85.9543 19.3555H84.1848V21.0234ZM84.1848 18.5H85.5871C85.8059 18.5 85.9934 18.4687 86.1496 18.4062C86.3085 18.3437 86.4296 18.2552 86.5129 18.1406C86.5989 18.0234 86.6418 17.8854 86.6418 17.7266C86.6418 17.4948 86.5468 17.3138 86.3567 17.1836C86.1666 17.0534 85.9062 16.9883 85.5754 16.9883H84.1848V18.5ZM92.065 22.1211C91.5025 22.1211 91.0116 21.9922 90.5923 21.7344C90.173 21.4766 89.8475 21.1159 89.6157 20.6523C89.384 20.1888 89.2681 19.6471 89.2681 19.0273C89.2681 18.4049 89.384 17.8607 89.6157 17.3945C89.8475 16.9284 90.173 16.5664 90.5923 16.3086C91.0116 16.0508 91.5025 15.9219 92.065 15.9219C92.6275 15.9219 93.1183 16.0508 93.5376 16.3086C93.9569 16.5664 94.2824 16.9284 94.5142 17.3945C94.746 17.8607 94.8618 18.4049 94.8618 19.0273C94.8618 19.6471 94.746 20.1888 94.5142 20.6523C94.2824 21.1159 93.9569 21.4766 93.5376 21.7344C93.1183 21.9922 92.6275 22.1211 92.065 22.1211ZM92.0689 21.1406C92.4335 21.1406 92.7355 21.0443 92.9751 20.8516C93.2147 20.6589 93.3918 20.4023 93.5064 20.082C93.6236 19.7617 93.6821 19.4089 93.6821 19.0234C93.6821 18.6406 93.6236 18.2891 93.5064 17.9687C93.3918 17.6458 93.2147 17.3867 92.9751 17.1914C92.7355 16.9961 92.4335 16.8984 92.0689 16.8984C91.7017 16.8984 91.397 16.9961 91.1548 17.1914C90.9152 17.3867 90.7368 17.6458 90.6196 17.9687C90.5051 18.2891 90.4478 18.6406 90.4478 19.0234C90.4478 19.4089 90.5051 19.7617 90.6196 20.082C90.7368 20.4023 90.9152 20.6589 91.1548 20.8516C91.397 21.0443 91.7017 21.1406 92.0689 21.1406ZM99.1612 20.4141H100.357C100.372 20.6589 100.483 20.8477 100.689 20.9805C100.897 21.1133 101.166 21.1797 101.497 21.1797C101.833 21.1797 102.12 21.1081 102.357 20.9648C102.594 20.819 102.712 20.5937 102.712 20.2891C102.712 20.1068 102.666 19.9479 102.575 19.8125C102.487 19.6745 102.36 19.5677 102.196 19.4922C102.035 19.4167 101.844 19.3789 101.622 19.3789H100.646V18.4609H101.622C101.953 18.4609 102.2 18.3854 102.364 18.2344C102.528 18.0833 102.61 17.8945 102.61 17.668C102.61 17.4232 102.522 17.2266 102.345 17.0781C102.17 16.9271 101.927 16.8516 101.614 16.8516C101.297 16.8516 101.032 16.9232 100.821 17.0664C100.61 17.207 100.5 17.3893 100.489 17.6133H99.3096C99.3175 17.2773 99.419 16.9831 99.6143 16.7305C99.8123 16.4753 100.078 16.2773 100.411 16.1367C100.747 15.9935 101.129 15.9219 101.556 15.9219C102.001 15.9219 102.386 15.9935 102.712 16.1367C103.038 16.2799 103.289 16.4779 103.466 16.7305C103.646 16.9831 103.735 17.2734 103.735 17.6016C103.735 17.9323 103.636 18.2031 103.439 18.4141C103.243 18.6224 102.988 18.7721 102.673 18.8633V18.9258C102.905 18.9414 103.11 19.0117 103.29 19.1367C103.47 19.2617 103.61 19.4271 103.712 19.6328C103.814 19.8385 103.864 20.0716 103.864 20.332C103.864 20.6992 103.763 21.0169 103.56 21.2852C103.359 21.5534 103.08 21.7604 102.724 21.9062C102.37 22.0495 101.965 22.1211 101.509 22.1211C101.066 22.1211 100.669 22.0521 100.317 21.9141C99.9685 21.7734 99.6912 21.5755 99.4854 21.3203C99.2823 21.0651 99.1742 20.763 99.1612 20.4141ZM107.036 22.1328C106.656 22.1328 106.313 22.0625 106.005 21.9219C105.698 21.7786 105.454 21.5716 105.275 21.3008C105.098 21.0299 105.009 20.6979 105.009 20.3047C105.009 19.9661 105.074 19.6875 105.204 19.4687C105.335 19.25 105.51 19.0768 105.732 18.9492C105.953 18.8216 106.201 18.7253 106.474 18.6602C106.747 18.5951 107.026 18.5456 107.31 18.5117C107.669 18.4701 107.961 18.4362 108.185 18.4102C108.409 18.3815 108.572 18.3359 108.673 18.2734C108.775 18.2109 108.826 18.1094 108.826 17.9687V17.9414C108.826 17.6003 108.729 17.3359 108.536 17.1484C108.346 16.9609 108.063 16.8672 107.685 16.8672C107.292 16.8672 106.982 16.9544 106.755 17.1289C106.531 17.3008 106.376 17.4922 106.29 17.7031L105.193 17.4531C105.323 17.0885 105.513 16.7943 105.763 16.5703C106.016 16.3437 106.306 16.1797 106.634 16.0781C106.962 15.974 107.307 15.9219 107.669 15.9219C107.909 15.9219 108.163 15.9505 108.431 16.0078C108.702 16.0625 108.954 16.1641 109.189 16.3125C109.426 16.4609 109.62 16.6732 109.771 16.9492C109.922 17.2227 109.997 17.5781 109.997 18.0156V22H108.857V21.1797H108.81C108.734 21.3307 108.621 21.4792 108.47 21.625C108.319 21.7708 108.125 21.8919 107.888 21.9883C107.651 22.0846 107.367 22.1328 107.036 22.1328ZM107.29 21.1953C107.613 21.1953 107.889 21.1315 108.119 21.0039C108.35 20.8763 108.526 20.7096 108.646 20.5039C108.768 20.2956 108.829 20.0729 108.829 19.8359V19.0625C108.788 19.1042 108.707 19.1432 108.587 19.1797C108.47 19.2135 108.336 19.2435 108.185 19.2695C108.034 19.293 107.887 19.3151 107.744 19.3359C107.6 19.3542 107.48 19.3698 107.384 19.3828C107.158 19.4115 106.951 19.4596 106.763 19.5273C106.578 19.5951 106.43 19.6927 106.318 19.8203C106.208 19.9453 106.154 20.112 106.154 20.3203C106.154 20.6094 106.26 20.8281 106.474 20.9766C106.688 21.1224 106.96 21.1953 107.29 21.1953ZM111.773 22V16H116.668V22H115.523V17.0078H112.91V22H111.773ZM118.449 24.25V16H119.59V16.9727H119.687C119.755 16.8477 119.853 16.7031 119.98 16.5391C120.108 16.375 120.285 16.2318 120.512 16.1094C120.738 15.9844 121.038 15.9219 121.41 15.9219C121.894 15.9219 122.327 16.0443 122.707 16.2891C123.087 16.5339 123.385 16.8867 123.601 17.3477C123.82 17.8086 123.93 18.3633 123.93 19.0117C123.93 19.6602 123.822 20.2161 123.605 20.6797C123.389 21.1406 123.092 21.4961 122.715 21.7461C122.337 21.9935 121.906 22.1172 121.422 22.1172C121.057 22.1172 120.759 22.056 120.527 21.9336C120.298 21.8112 120.118 21.668 119.988 21.5039C119.858 21.3398 119.758 21.194 119.687 21.0664H119.617V24.25H118.449ZM119.594 19C119.594 19.4219 119.655 19.7917 119.777 20.1094C119.9 20.4271 120.077 20.6758 120.309 20.8555C120.54 21.0326 120.824 21.1211 121.16 21.1211C121.509 21.1211 121.801 21.0286 122.035 20.8437C122.269 20.6562 122.447 20.4023 122.566 20.082C122.689 19.7617 122.75 19.401 122.75 19C122.75 18.6042 122.69 18.2487 122.57 17.9336C122.453 17.6185 122.276 17.3698 122.039 17.1875C121.805 17.0052 121.512 16.9141 121.16 16.9141C120.822 16.9141 120.535 17.0013 120.301 17.1758C120.069 17.3503 119.893 17.5937 119.773 17.9062C119.654 18.2187 119.594 18.5833 119.594 19ZM127.986 22.1211C127.423 22.1211 126.932 21.9922 126.513 21.7344C126.094 21.4766 125.768 21.1159 125.536 20.6523C125.305 20.1888 125.189 19.6471 125.189 19.0273C125.189 18.4049 125.305 17.8607 125.536 17.3945C125.768 16.9284 126.094 16.5664 126.513 16.3086C126.932 16.0508 127.423 15.9219 127.986 15.9219C128.548 15.9219 129.039 16.0508 129.458 16.3086C129.877 16.5664 130.203 16.9284 130.435 17.3945C130.667 17.8607 130.782 18.4049 130.782 19.0273C130.782 19.6471 130.667 20.1888 130.435 20.6523C130.203 21.1159 129.877 21.4766 129.458 21.7344C129.039 21.9922 128.548 22.1211 127.986 22.1211ZM127.989 21.1406C128.354 21.1406 128.656 21.0443 128.896 20.8516C129.135 20.6589 129.312 20.4023 129.427 20.082C129.544 19.7617 129.603 19.4089 129.603 19.0234C129.603 18.6406 129.544 18.2891 129.427 17.9687C129.312 17.6458 129.135 17.3867 128.896 17.1914C128.656 16.9961 128.354 16.8984 127.989 16.8984C127.622 16.8984 127.318 16.9961 127.075 17.1914C126.836 17.3867 126.657 17.6458 126.54 17.9687C126.426 18.2891 126.368 18.6406 126.368 19.0234C126.368 19.4089 126.426 19.7617 126.54 20.082C126.657 20.4023 126.836 20.6589 127.075 20.8516C127.318 21.0443 127.622 21.1406 127.989 21.1406ZM134.833 22.1211C134.253 22.1211 133.753 21.9896 133.333 21.7266C132.917 21.4609 132.596 21.0951 132.373 20.6289C132.149 20.1628 132.037 19.6289 132.037 19.0273C132.037 18.418 132.151 17.8802 132.38 17.4141C132.61 16.9453 132.932 16.5794 133.349 16.3164C133.766 16.0534 134.257 15.9219 134.822 15.9219C135.277 15.9219 135.684 16.0065 136.041 16.1758C136.397 16.3424 136.685 16.5768 136.904 16.8789C137.125 17.181 137.257 17.5339 137.298 17.9375H136.162C136.099 17.6562 135.956 17.4141 135.732 17.2109C135.511 17.0078 135.214 16.9062 134.841 16.9062C134.516 16.9062 134.231 16.9922 133.986 17.1641C133.744 17.3333 133.555 17.5755 133.419 17.8906C133.284 18.2031 133.216 18.5729 133.216 19C133.216 19.4375 133.283 19.8151 133.416 20.1328C133.548 20.4505 133.736 20.6966 133.978 20.8711C134.223 21.0456 134.511 21.1328 134.841 21.1328C135.063 21.1328 135.263 21.0924 135.443 21.0117C135.625 20.9284 135.777 20.8099 135.9 20.6562C136.025 20.5026 136.112 20.3177 136.162 20.1016H137.298C137.257 20.4896 137.13 20.8359 136.919 21.1406C136.708 21.4453 136.426 21.6849 136.072 21.8594C135.72 22.0339 135.307 22.1211 134.833 22.1211ZM141.295 22.1211C140.732 22.1211 140.241 21.9922 139.822 21.7344C139.403 21.4766 139.077 21.1159 138.845 20.6523C138.614 20.1888 138.498 19.6471 138.498 19.0273C138.498 18.4049 138.614 17.8607 138.845 17.3945C139.077 16.9284 139.403 16.5664 139.822 16.3086C140.241 16.0508 140.732 15.9219 141.295 15.9219C141.857 15.9219 142.348 16.0508 142.767 16.3086C143.187 16.5664 143.512 16.9284 143.744 17.3945C143.976 17.8607 144.092 18.4049 144.092 19.0273C144.092 19.6471 143.976 20.1888 143.744 20.6523C143.512 21.1159 143.187 21.4766 142.767 21.7344C142.348 21.9922 141.857 22.1211 141.295 22.1211ZM141.299 21.1406C141.663 21.1406 141.965 21.0443 142.205 20.8516C142.444 20.6589 142.622 20.4023 142.736 20.082C142.853 19.7617 142.912 19.4089 142.912 19.0234C142.912 18.6406 142.853 18.2891 142.736 17.9687C142.622 17.6458 142.444 17.3867 142.205 17.1914C141.965 16.9961 141.663 16.8984 141.299 16.8984C140.931 16.8984 140.627 16.9961 140.385 17.1914C140.145 17.3867 139.967 17.6458 139.849 17.9687C139.735 18.2891 139.677 18.6406 139.677 19.0234C139.677 19.4089 139.735 19.7617 139.849 20.082C139.967 20.4023 140.145 20.6589 140.385 20.8516C140.627 21.0443 140.931 21.1406 141.299 21.1406ZM145.615 22V16H148.104C148.781 16 149.317 16.1445 149.713 16.4336C150.109 16.7201 150.307 17.1094 150.307 17.6016C150.307 17.9531 150.195 18.2318 149.971 18.4375C149.747 18.6432 149.45 18.7813 149.08 18.8516C149.348 18.8828 149.594 18.9635 149.818 19.0937C150.042 19.2214 150.222 19.3932 150.357 19.6094C150.495 19.8255 150.564 20.0833 150.564 20.3828C150.564 20.7005 150.482 20.9818 150.318 21.2266C150.154 21.4687 149.916 21.6589 149.604 21.7969C149.294 21.9323 148.92 22 148.482 22H145.615ZM146.713 21.0234H148.482C148.772 21.0234 148.998 20.9544 149.162 20.8164C149.326 20.6784 149.408 20.4909 149.408 20.2539C149.408 19.9753 149.326 19.7565 149.162 19.5977C148.998 19.4362 148.772 19.3555 148.482 19.3555H146.713V21.0234ZM146.713 18.5H148.115C148.334 18.5 148.522 18.4687 148.678 18.4062C148.837 18.3437 148.958 18.2552 149.041 18.1406C149.127 18.0234 149.17 17.8854 149.17 17.7266C149.17 17.4948 149.075 17.3138 148.885 17.1836C148.695 17.0534 148.434 16.9883 148.104 16.9883H146.713V18.5Z" fill="#080809"/>
<rect x="169" y="1" width="22" height="22" fill="#A05D75"/>
<path d="M199.273 11.9336V8.97656H199.801C199.98 8.82552 200.148 8.61068 200.305 8.33203C200.461 8.05339 200.594 7.67708 200.703 7.20312C200.813 6.72917 200.888 6.12109 200.93 5.37891L201.117 2H206.051V8.97656H206.957V11.9219H205.801V10H200.43V11.9336H199.273ZM201.223 8.97656H204.895V3.03906H202.211L202.086 5.37891C202.052 5.94401 201.996 6.45182 201.918 6.90234C201.842 7.35286 201.745 7.7513 201.625 8.09766C201.508 8.44141 201.374 8.73437 201.223 8.97656ZM210.933 10.1211C210.37 10.1211 209.88 9.99219 209.46 9.73437C209.041 9.47656 208.715 9.11589 208.484 8.65234C208.252 8.1888 208.136 7.64714 208.136 7.02734C208.136 6.40495 208.252 5.86068 208.484 5.39453C208.715 4.92839 209.041 4.56641 209.46 4.30859C209.88 4.05078 210.37 3.92188 210.933 3.92188C211.495 3.92188 211.986 4.05078 212.406 4.30859C212.825 4.56641 213.15 4.92839 213.382 5.39453C213.614 5.86068 213.73 6.40495 213.73 7.02734C213.73 7.64714 213.614 8.1888 213.382 8.65234C213.15 9.11589 212.825 9.47656 212.406 9.73437C211.986 9.99219 211.495 10.1211 210.933 10.1211ZM210.937 9.14062C211.301 9.14062 211.603 9.04427 211.843 8.85156C212.083 8.65885 212.26 8.40234 212.374 8.08203C212.491 7.76172 212.55 7.40885 212.55 7.02344C212.55 6.64062 212.491 6.28906 212.374 5.96875C212.26 5.64583 212.083 5.38672 211.843 5.19141C211.603 4.99609 211.301 4.89844 210.937 4.89844C210.57 4.89844 210.265 4.99609 210.023 5.19141C209.783 5.38672 209.605 5.64583 209.488 5.96875C209.373 6.28906 209.316 6.64062 209.316 7.02344C209.316 7.40885 209.373 7.76172 209.488 8.08203C209.605 8.40234 209.783 8.65885 210.023 8.85156C210.265 9.04427 210.57 9.14062 210.937 9.14062ZM215.253 10V4H220.148V10H219.003V5.00781H216.39V10H215.253ZM222.453 12.25C222.278 12.25 222.12 12.2357 221.976 12.207C221.833 12.181 221.726 12.1523 221.656 12.1211L221.937 11.1641C222.151 11.2214 222.341 11.2461 222.508 11.2383C222.674 11.2305 222.821 11.168 222.949 11.0508C223.079 10.9336 223.194 10.7422 223.293 10.4766L223.437 10.0781L221.242 4H222.492L224.012 8.65625H224.074L225.594 4H226.848L224.375 10.8008C224.26 11.1133 224.114 11.3776 223.937 11.5938C223.76 11.8125 223.549 11.9766 223.305 12.0859C223.06 12.1953 222.776 12.25 222.453 12.25ZM230.488 10.1211C229.908 10.1211 229.408 9.98958 228.988 9.72656C228.572 9.46094 228.251 9.09505 228.027 8.62891C227.804 8.16276 227.692 7.62891 227.692 7.02734C227.692 6.41797 227.806 5.88021 228.035 5.41406C228.264 4.94531 228.587 4.57943 229.004 4.31641C229.421 4.05339 229.912 3.92188 230.477 3.92188C230.932 3.92188 231.339 4.00651 231.695 4.17578C232.052 4.34245 232.34 4.57682 232.559 4.87891C232.78 5.18099 232.912 5.53385 232.953 5.9375H231.817C231.754 5.65625 231.611 5.41406 231.387 5.21094C231.165 5.00781 230.869 4.90625 230.496 4.90625C230.171 4.90625 229.886 4.99219 229.641 5.16406C229.399 5.33333 229.21 5.57552 229.074 5.89062C228.939 6.20312 228.871 6.57292 228.871 7C228.871 7.4375 228.938 7.8151 229.07 8.13281C229.203 8.45052 229.391 8.69661 229.633 8.87109C229.878 9.04557 230.165 9.13281 230.496 9.13281C230.718 9.13281 230.918 9.09245 231.098 9.01172C231.28 8.92839 231.432 8.8099 231.555 8.65625C231.68 8.5026 231.767 8.31771 231.817 8.10156H232.953C232.912 8.48958 232.785 8.83594 232.574 9.14062C232.363 9.44531 232.081 9.6849 231.727 9.85937C231.375 10.0339 230.962 10.1211 230.488 10.1211ZM233.968 5.00781V4H239.031V5.00781H237.074V10H235.933V5.00781H233.968ZM241.631 8.36328L244.275 4H245.533V10H244.388V5.63281L241.756 10H240.486V4H241.631V8.36328ZM250.69 8.55469L252.628 4H253.636L251.124 10H250.257L247.796 4H248.792L250.69 8.55469ZM248.468 4V10H247.323V4H248.468ZM252.944 10V4H254.081V10H252.944ZM258.385 10.1211C257.822 10.1211 257.332 9.99219 256.912 9.73437C256.493 9.47656 256.168 9.11589 255.936 8.65234C255.704 8.1888 255.588 7.64714 255.588 7.02734C255.588 6.40495 255.704 5.86068 255.936 5.39453C256.168 4.92839 256.493 4.56641 256.912 4.30859C257.332 4.05078 257.822 3.92188 258.385 3.92188C258.947 3.92188 259.438 4.05078 259.858 4.30859C260.277 4.56641 260.602 4.92839 260.834 5.39453C261.066 5.86068 261.182 6.40495 261.182 7.02734C261.182 7.64714 261.066 8.1888 260.834 8.65234C260.602 9.11589 260.277 9.47656 259.858 9.73437C259.438 9.99219 258.947 10.1211 258.385 10.1211ZM258.389 9.14062C258.753 9.14062 259.056 9.04427 259.295 8.85156C259.535 8.65885 259.712 8.40234 259.826 8.08203C259.944 7.76172 260.002 7.40885 260.002 7.02344C260.002 6.64062 259.944 6.28906 259.826 5.96875C259.712 5.64583 259.535 5.38672 259.295 5.19141C259.056 4.99609 258.753 4.89844 258.389 4.89844C258.022 4.89844 257.717 4.99609 257.475 5.19141C257.235 5.38672 257.057 5.64583 256.94 5.96875C256.825 6.28906 256.768 6.64062 256.768 7.02344C256.768 7.40885 256.825 7.76172 256.94 8.08203C257.057 8.40234 257.235 8.65885 257.475 8.85156C257.717 9.04427 258.022 9.14062 258.389 9.14062ZM265.292 10.1211C264.7 10.1211 264.191 9.99479 263.764 9.74219C263.34 9.48698 263.012 9.12891 262.78 8.66797C262.551 8.20443 262.436 7.66146 262.436 7.03906C262.436 6.42448 262.551 5.88281 262.78 5.41406C263.012 4.94531 263.334 4.57943 263.749 4.31641C264.165 4.05339 264.652 3.92188 265.209 3.92188C265.548 3.92188 265.876 3.97786 266.194 4.08984C266.512 4.20182 266.797 4.3776 267.049 4.61719C267.302 4.85677 267.501 5.16797 267.647 5.55078C267.793 5.93099 267.866 6.39323 267.866 6.9375V7.35156H263.096V6.47656H266.721C266.721 6.16927 266.659 5.89714 266.534 5.66016C266.409 5.42057 266.233 5.23177 266.006 5.09375C265.782 4.95573 265.519 4.88672 265.217 4.88672C264.889 4.88672 264.603 4.96745 264.358 5.12891C264.116 5.28776 263.928 5.49609 263.795 5.75391C263.665 6.00911 263.6 6.28646 263.6 6.58594V7.26953C263.6 7.67057 263.67 8.01172 263.811 8.29297C263.954 8.57422 264.154 8.78906 264.409 8.9375C264.664 9.08333 264.962 9.15625 265.303 9.15625C265.525 9.15625 265.726 9.125 265.909 9.0625C266.091 8.9974 266.249 8.90104 266.381 8.77344C266.514 8.64583 266.616 8.48828 266.686 8.30078L267.792 8.5C267.703 8.82552 267.544 9.11068 267.315 9.35547C267.088 9.59766 266.803 9.78646 266.459 9.92187C266.118 10.0547 265.729 10.1211 265.292 10.1211ZM199.785 22V16H200.953V18.5156H201.516L203.496 16H204.941L202.617 18.918L204.969 22H203.52L201.711 19.6016H200.953V22H199.785ZM208.376 22.1211C207.814 22.1211 207.323 21.9922 206.904 21.7344C206.484 21.4766 206.159 21.1159 205.927 20.6523C205.695 20.1888 205.579 19.6471 205.579 19.0273C205.579 18.4049 205.695 17.8607 205.927 17.3945C206.159 16.9284 206.484 16.5664 206.904 16.3086C207.323 16.0508 207.814 15.9219 208.376 15.9219C208.939 15.9219 209.43 16.0508 209.849 16.3086C210.268 16.5664 210.594 16.9284 210.825 17.3945C211.057 17.8607 211.173 18.4049 211.173 19.0273C211.173 19.6471 211.057 20.1888 210.825 20.6523C210.594 21.1159 210.268 21.4766 209.849 21.7344C209.43 21.9922 208.939 22.1211 208.376 22.1211ZM208.38 21.1406C208.745 21.1406 209.047 21.0443 209.286 20.8516C209.526 20.6589 209.703 20.4023 209.818 20.082C209.935 19.7617 209.993 19.4089 209.993 19.0234C209.993 18.6406 209.935 18.2891 209.818 17.9687C209.703 17.6458 209.526 17.3867 209.286 17.1914C209.047 16.9961 208.745 16.8984 208.38 16.8984C208.013 16.8984 207.708 16.9961 207.466 17.1914C207.227 17.3867 207.048 17.6458 206.931 17.9687C206.816 18.2891 206.759 18.6406 206.759 19.0234C206.759 19.4089 206.816 19.7617 206.931 20.082C207.048 20.4023 207.227 20.6589 207.466 20.8516C207.708 21.0443 208.013 21.1406 208.38 21.1406ZM212.224 22L212.22 20.9883H212.435C212.602 20.9883 212.741 20.9531 212.853 20.8828C212.968 20.8099 213.061 20.6875 213.134 20.5156C213.207 20.3437 213.263 20.1068 213.302 19.8047C213.341 19.5 213.37 19.1172 213.388 18.6562L213.494 16H217.681V22H216.537V17.0078H214.576L214.482 19.0469C214.459 19.5417 214.408 19.974 214.33 20.3437C214.254 20.7135 214.143 21.0221 213.998 21.2695C213.852 21.5143 213.664 21.6979 213.435 21.8203C213.206 21.9401 212.927 22 212.599 22H212.224ZM220.603 20.3633L223.248 16H224.506V22H223.361V17.6328L220.728 22H219.459V16H220.603V20.3633ZM231.112 16V22H229.972V16H231.112ZM230.616 18.7852V19.793C230.437 19.8659 230.247 19.931 230.046 19.9883C229.845 20.043 229.635 20.0859 229.413 20.1172C229.192 20.1484 228.961 20.1641 228.722 20.1641C227.98 20.1641 227.39 19.9831 226.952 19.6211C226.515 19.2565 226.296 18.6992 226.296 17.9492V15.9883H227.433V17.9492C227.433 18.2331 227.485 18.4635 227.589 18.6406C227.693 18.8177 227.842 18.9479 228.034 19.0312C228.227 19.1146 228.456 19.1562 228.722 19.1562C229.073 19.1562 229.398 19.1237 229.694 19.0586C229.994 18.9909 230.301 18.8997 230.616 18.7852ZM235.472 22.1211C234.881 22.1211 234.372 21.9948 233.945 21.7422C233.52 21.487 233.192 21.1289 232.96 20.668C232.731 20.2044 232.617 19.6615 232.617 19.0391C232.617 18.4245 232.731 17.8828 232.96 17.4141C233.192 16.9453 233.515 16.5794 233.929 16.3164C234.346 16.0534 234.833 15.9219 235.39 15.9219C235.729 15.9219 236.057 15.9779 236.374 16.0898C236.692 16.2018 236.977 16.3776 237.23 16.6172C237.482 16.8568 237.682 17.168 237.828 17.5508C237.973 17.931 238.046 18.3932 238.046 18.9375V19.3516H233.277V18.4766H236.902C236.902 18.1693 236.839 17.8971 236.714 17.6602C236.589 17.4206 236.413 17.2318 236.187 17.0937C235.963 16.9557 235.7 16.8867 235.398 16.8867C235.07 16.8867 234.783 16.9674 234.538 17.1289C234.296 17.2878 234.109 17.4961 233.976 17.7539C233.846 18.0091 233.781 18.2865 233.781 18.5859V19.2695C233.781 19.6706 233.851 20.0117 233.992 20.293C234.135 20.5742 234.334 20.7891 234.589 20.9375C234.844 21.0833 235.143 21.1562 235.484 21.1562C235.705 21.1562 235.907 21.125 236.089 21.0625C236.272 20.9974 236.429 20.901 236.562 20.7734C236.695 20.6458 236.796 20.4883 236.867 20.3008L237.972 20.5C237.884 20.8255 237.725 21.1107 237.496 21.3555C237.269 21.5977 236.984 21.7865 236.64 21.9219C236.299 22.0547 235.91 22.1211 235.472 22.1211ZM242.09 22.1211C241.509 22.1211 241.009 21.9896 240.59 21.7266C240.173 21.4609 239.853 21.0951 239.629 20.6289C239.405 20.1628 239.293 19.6289 239.293 19.0273C239.293 18.418 239.407 17.8802 239.636 17.4141C239.866 16.9453 240.188 16.5794 240.605 16.3164C241.022 16.0534 241.513 15.9219 242.078 15.9219C242.534 15.9219 242.94 16.0065 243.297 16.1758C243.653 16.3424 243.941 16.5768 244.16 16.8789C244.381 17.181 244.513 17.5339 244.554 17.9375H243.418C243.355 17.6562 243.212 17.4141 242.988 17.2109C242.767 17.0078 242.47 16.9062 242.097 16.9062C241.772 16.9062 241.487 16.9922 241.242 17.1641C241 17.3333 240.811 17.5755 240.675 17.8906C240.54 18.2031 240.472 18.5729 240.472 19C240.472 19.4375 240.539 19.8151 240.672 20.1328C240.804 20.4505 240.992 20.6966 241.234 20.8711C241.479 21.0456 241.767 21.1328 242.097 21.1328C242.319 21.1328 242.519 21.0924 242.699 21.0117C242.881 20.9284 243.034 20.8099 243.156 20.6562C243.281 20.5026 243.368 20.3177 243.418 20.1016H244.554C244.513 20.4896 244.386 20.8359 244.175 21.1406C243.965 21.4453 243.682 21.6849 243.328 21.8594C242.976 22.0339 242.563 22.1211 242.09 22.1211ZM245.569 17.0078V16H250.632V17.0078H248.675V22H247.534V17.0078H245.569ZM252.087 22V16H254.575C255.253 16 255.789 16.1445 256.185 16.4336C256.581 16.7201 256.779 17.1094 256.779 17.6016C256.779 17.9531 256.667 18.2318 256.443 18.4375C256.219 18.6432 255.922 18.7813 255.552 18.8516C255.82 18.8828 256.066 18.9635 256.29 19.0937C256.514 19.2214 256.694 19.3932 256.829 19.6094C256.967 19.8255 257.036 20.0833 257.036 20.3828C257.036 20.7005 256.954 20.9818 256.79 21.2266C256.626 21.4687 256.388 21.6589 256.075 21.7969C255.766 21.9323 255.392 22 254.954 22H252.087ZM253.185 21.0234H254.954C255.243 21.0234 255.47 20.9544 255.634 20.8164C255.798 20.6784 255.88 20.4909 255.88 20.2539C255.88 19.9753 255.798 19.7565 255.634 19.5977C255.47 19.4362 255.243 19.3555 254.954 19.3555H253.185V21.0234ZM253.185 18.5H254.587C254.806 18.5 254.993 18.4687 255.15 18.4062C255.309 18.3437 255.43 18.2552 255.513 18.1406C255.599 18.0234 255.642 17.8854 255.642 17.7266C255.642 17.4948 255.547 17.3138 255.357 17.1836C255.167 17.0534 254.906 16.9883 254.575 16.9883H253.185V18.5ZM261.065 22.1211C260.502 22.1211 260.012 21.9922 259.592 21.7344C259.173 21.4766 258.848 21.1159 258.616 20.6523C258.384 20.1888 258.268 19.6471 258.268 19.0273C258.268 18.4049 258.384 17.8607 258.616 17.3945C258.848 16.9284 259.173 16.5664 259.592 16.3086C260.012 16.0508 260.502 15.9219 261.065 15.9219C261.627 15.9219 262.118 16.0508 262.538 16.3086C262.957 16.5664 263.282 16.9284 263.514 17.3945C263.746 17.8607 263.862 18.4049 263.862 19.0273C263.862 19.6471 263.746 20.1888 263.514 20.6523C263.282 21.1159 262.957 21.4766 262.538 21.7344C262.118 21.9922 261.627 22.1211 261.065 22.1211ZM261.069 21.1406C261.433 21.1406 261.736 21.0443 261.975 20.8516C262.215 20.6589 262.392 20.4023 262.506 20.082C262.624 19.7617 262.682 19.4089 262.682 19.0234C262.682 18.6406 262.624 18.2891 262.506 17.9687C262.392 17.6458 262.215 17.3867 261.975 17.1914C261.736 16.9961 261.433 16.8984 261.069 16.8984C260.702 16.8984 260.397 16.9961 260.155 17.1914C259.915 17.3867 259.737 17.6458 259.62 17.9687C259.505 18.2891 259.448 18.6406 259.448 19.0234C259.448 19.4089 259.505 19.7617 259.62 20.082C259.737 20.4023 259.915 20.6589 260.155 20.8516C260.397 21.0443 260.702 21.1406 261.069 21.1406ZM268.161 20.4141H269.357C269.372 20.6589 269.483 20.8477 269.689 20.9805C269.897 21.1133 270.166 21.1797 270.497 21.1797C270.833 21.1797 271.12 21.1081 271.357 20.9648C271.594 20.819 271.712 20.5937 271.712 20.2891C271.712 20.1068 271.666 19.9479 271.575 19.8125C271.487 19.6745 271.36 19.5677 271.196 19.4922C271.035 19.4167 270.844 19.3789 270.622 19.3789H269.646V18.4609H270.622C270.953 18.4609 271.2 18.3854 271.364 18.2344C271.528 18.0833 271.61 17.8945 271.61 17.668C271.61 17.4232 271.522 17.2266 271.345 17.0781C271.17 16.9271 270.927 16.8516 270.614 16.8516C270.297 16.8516 270.032 16.9232 269.821 17.0664C269.61 17.207 269.5 17.3893 269.489 17.6133H268.31C268.317 17.2773 268.419 16.9831 268.614 16.7305C268.812 16.4753 269.078 16.2773 269.411 16.1367C269.747 15.9935 270.129 15.9219 270.556 15.9219C271.001 15.9219 271.386 15.9935 271.712 16.1367C272.038 16.2799 272.289 16.4779 272.466 16.7305C272.646 16.9831 272.735 17.2734 272.735 17.6016C272.735 17.9323 272.636 18.2031 272.439 18.4141C272.243 18.6224 271.988 18.7721 271.673 18.8633V18.9258C271.905 18.9414 272.11 19.0117 272.29 19.1367C272.47 19.2617 272.61 19.4271 272.712 19.6328C272.814 19.8385 272.864 20.0716 272.864 20.332C272.864 20.6992 272.763 21.0169 272.56 21.2852C272.359 21.5534 272.08 21.7604 271.724 21.9062C271.37 22.0495 270.965 22.1211 270.509 22.1211C270.066 22.1211 269.669 22.0521 269.317 21.9141C268.969 21.7734 268.691 21.5755 268.485 21.3203C268.282 21.0651 268.174 20.763 268.161 20.4141ZM276.036 22.1328C275.656 22.1328 275.313 22.0625 275.005 21.9219C274.698 21.7786 274.454 21.5716 274.275 21.3008C274.098 21.0299 274.009 20.6979 274.009 20.3047C274.009 19.9661 274.074 19.6875 274.204 19.4687C274.335 19.25 274.51 19.0768 274.732 18.9492C274.953 18.8216 275.201 18.7253 275.474 18.6602C275.747 18.5951 276.026 18.5456 276.31 18.5117C276.669 18.4701 276.961 18.4362 277.185 18.4102C277.409 18.3815 277.572 18.3359 277.673 18.2734C277.775 18.2109 277.826 18.1094 277.826 17.9687V17.9414C277.826 17.6003 277.729 17.3359 277.536 17.1484C277.346 16.9609 277.063 16.8672 276.685 16.8672C276.292 16.8672 275.982 16.9544 275.755 17.1289C275.531 17.3008 275.376 17.4922 275.29 17.7031L274.193 17.4531C274.323 17.0885 274.513 16.7943 274.763 16.5703C275.016 16.3437 275.306 16.1797 275.634 16.0781C275.962 15.974 276.307 15.9219 276.669 15.9219C276.909 15.9219 277.163 15.9505 277.431 16.0078C277.702 16.0625 277.954 16.1641 278.189 16.3125C278.426 16.4609 278.62 16.6732 278.771 16.9492C278.922 17.2227 278.997 17.5781 278.997 18.0156V22H277.857V21.1797H277.81C277.734 21.3307 277.621 21.4792 277.47 21.625C277.319 21.7708 277.125 21.8919 276.888 21.9883C276.651 22.0846 276.367 22.1328 276.036 22.1328ZM276.29 21.1953C276.613 21.1953 276.889 21.1315 277.119 21.0039C277.35 20.8763 277.526 20.7096 277.646 20.5039C277.768 20.2956 277.829 20.0729 277.829 19.8359V19.0625C277.788 19.1042 277.707 19.1432 277.587 19.1797C277.47 19.2135 277.336 19.2435 277.185 19.2695C277.034 19.293 276.887 19.3151 276.744 19.3359C276.6 19.3542 276.48 19.3698 276.384 19.3828C276.158 19.4115 275.951 19.4596 275.763 19.5273C275.578 19.5951 275.43 19.6927 275.318 19.8203C275.208 19.9453 275.154 20.112 275.154 20.3203C275.154 20.6094 275.26 20.8281 275.474 20.9766C275.688 21.1224 275.96 21.1953 276.29 21.1953ZM280.773 22V16H285.668V22H284.523V17.0078H281.91V22H280.773ZM287.449 24.25V16H288.59V16.9727H288.687C288.755 16.8477 288.853 16.7031 288.98 16.5391C289.108 16.375 289.285 16.2318 289.512 16.1094C289.738 15.9844 290.038 15.9219 290.41 15.9219C290.894 15.9219 291.327 16.0443 291.707 16.2891C292.087 16.5339 292.385 16.8867 292.601 17.3477C292.82 17.8086 292.93 18.3633 292.93 19.0117C292.93 19.6602 292.822 20.2161 292.605 20.6797C292.389 21.1406 292.092 21.4961 291.715 21.7461C291.337 21.9935 290.906 22.1172 290.422 22.1172C290.057 22.1172 289.759 22.056 289.527 21.9336C289.298 21.8112 289.118 21.668 288.988 21.5039C288.858 21.3398 288.758 21.194 288.687 21.0664H288.617V24.25H287.449ZM288.594 19C288.594 19.4219 288.655 19.7917 288.777 20.1094C288.9 20.4271 289.077 20.6758 289.309 20.8555C289.54 21.0326 289.824 21.1211 290.16 21.1211C290.509 21.1211 290.801 21.0286 291.035 20.8437C291.269 20.6562 291.447 20.4023 291.566 20.082C291.689 19.7617 291.75 19.401 291.75 19C291.75 18.6042 291.69 18.2487 291.57 17.9336C291.453 17.6185 291.276 17.3698 291.039 17.1875C290.805 17.0052 290.512 16.9141 290.16 16.9141C289.822 16.9141 289.535 17.0013 289.301 17.1758C289.069 17.3503 288.893 17.5937 288.773 17.9062C288.654 18.2187 288.594 18.5833 288.594 19ZM296.986 22.1211C296.423 22.1211 295.932 21.9922 295.513 21.7344C295.094 21.4766 294.768 21.1159 294.536 20.6523C294.305 20.1888 294.189 19.6471 294.189 19.0273C294.189 18.4049 294.305 17.8607 294.536 17.3945C294.768 16.9284 295.094 16.5664 295.513 16.3086C295.932 16.0508 296.423 15.9219 296.986 15.9219C297.548 15.9219 298.039 16.0508 298.458 16.3086C298.877 16.5664 299.203 16.9284 299.435 17.3945C299.667 17.8607 299.782 18.4049 299.782 19.0273C299.782 19.6471 299.667 20.1888 299.435 20.6523C299.203 21.1159 298.877 21.4766 298.458 21.7344C298.039 21.9922 297.548 22.1211 296.986 22.1211ZM296.989 21.1406C297.354 21.1406 297.656 21.0443 297.896 20.8516C298.135 20.6589 298.312 20.4023 298.427 20.082C298.544 19.7617 298.603 19.4089 298.603 19.0234C298.603 18.6406 298.544 18.2891 298.427 17.9687C298.312 17.6458 298.135 17.3867 297.896 17.1914C297.656 16.9961 297.354 16.8984 296.989 16.8984C296.622 16.8984 296.318 16.9961 296.075 17.1914C295.836 17.3867 295.657 17.6458 295.54 17.9687C295.426 18.2891 295.368 18.6406 295.368 19.0234C295.368 19.4089 295.426 19.7617 295.54 20.082C295.657 20.4023 295.836 20.6589 296.075 20.8516C296.318 21.0443 296.622 21.1406 296.989 21.1406ZM303.833 22.1211C303.253 22.1211 302.753 21.9896 302.333 21.7266C301.917 21.4609 301.596 21.0951 301.373 20.6289C301.149 20.1628 301.037 19.6289 301.037 19.0273C301.037 18.418 301.151 17.8802 301.38 17.4141C301.61 16.9453 301.932 16.5794 302.349 16.3164C302.766 16.0534 303.257 15.9219 303.822 15.9219C304.277 15.9219 304.684 16.0065 305.041 16.1758C305.397 16.3424 305.685 16.5768 305.904 16.8789C306.125 17.181 306.257 17.5339 306.298 17.9375H305.162C305.099 17.6562 304.956 17.4141 304.732 17.2109C304.511 17.0078 304.214 16.9062 303.841 16.9062C303.516 16.9062 303.231 16.9922 302.986 17.1641C302.744 17.3333 302.555 17.5755 302.419 17.8906C302.284 18.2031 302.216 18.5729 302.216 19C302.216 19.4375 302.283 19.8151 302.416 20.1328C302.548 20.4505 302.736 20.6966 302.978 20.8711C303.223 21.0456 303.511 21.1328 303.841 21.1328C304.063 21.1328 304.263 21.0924 304.443 21.0117C304.625 20.9284 304.777 20.8099 304.9 20.6562C305.025 20.5026 305.112 20.3177 305.162 20.1016H306.298C306.257 20.4896 306.13 20.8359 305.919 21.1406C305.708 21.4453 305.426 21.6849 305.072 21.8594C304.72 22.0339 304.307 22.1211 303.833 22.1211ZM310.295 22.1211C309.732 22.1211 309.241 21.9922 308.822 21.7344C308.403 21.4766 308.077 21.1159 307.845 20.6523C307.614 20.1888 307.498 19.6471 307.498 19.0273C307.498 18.4049 307.614 17.8607 307.845 17.3945C308.077 16.9284 308.403 16.5664 308.822 16.3086C309.241 16.0508 309.732 15.9219 310.295 15.9219C310.857 15.9219 311.348 16.0508 311.767 16.3086C312.187 16.5664 312.512 16.9284 312.744 17.3945C312.976 17.8607 313.092 18.4049 313.092 19.0273C313.092 19.6471 312.976 20.1888 312.744 20.6523C312.512 21.1159 312.187 21.4766 311.767 21.7344C311.348 21.9922 310.857 22.1211 310.295 22.1211ZM310.299 21.1406C310.663 21.1406 310.965 21.0443 311.205 20.8516C311.444 20.6589 311.622 20.4023 311.736 20.082C311.853 19.7617 311.912 19.4089 311.912 19.0234C311.912 18.6406 311.853 18.2891 311.736 17.9687C311.622 17.6458 311.444 17.3867 311.205 17.1914C310.965 16.9961 310.663 16.8984 310.299 16.8984C309.931 16.8984 309.627 16.9961 309.385 17.1914C309.145 17.3867 308.967 17.6458 308.849 17.9687C308.735 18.2891 308.677 18.6406 308.677 19.0234C308.677 19.4089 308.735 19.7617 308.849 20.082C308.967 20.4023 309.145 20.6589 309.385 20.8516C309.627 21.0443 309.931 21.1406 310.299 21.1406ZM314.615 22V16H317.104C317.781 16 318.317 16.1445 318.713 16.4336C319.109 16.7201 319.307 17.1094 319.307 17.6016C319.307 17.9531 319.195 18.2318 318.971 18.4375C318.747 18.6432 318.45 18.7813 318.08 18.8516C318.348 18.8828 318.594 18.9635 318.818 19.0937C319.042 19.2214 319.222 19.3932 319.357 19.6094C319.495 19.8255 319.564 20.0833 319.564 20.3828C319.564 20.7005 319.482 20.9818 319.318 21.2266C319.154 21.4687 318.916 21.6589 318.604 21.7969C318.294 21.9323 317.92 22 317.482 22H314.615ZM315.713 21.0234H317.482C317.772 21.0234 317.998 20.9544 318.162 20.8164C318.326 20.6784 318.408 20.4909 318.408 20.2539C318.408 19.9753 318.326 19.7565 318.162 19.5977C317.998 19.4362 317.772 19.3555 317.482 19.3555H315.713V21.0234ZM315.713 18.5H317.115C317.334 18.5 317.522 18.4687 317.678 18.4062C317.837 18.3437 317.958 18.2552 318.041 18.1406C318.127 18.0234 318.17 17.8854 318.17 17.7266C318.17 17.4948 318.075 17.3138 317.885 17.1836C317.695 17.0534 317.434 16.9883 317.104 16.9883H315.713V18.5Z" fill="#080809"/>
<rect x="340" y="1" width="22" height="22" fill="#5F5B8B"/>
<path d="M370.879 10V2H372.086V5.47656H376.074V2H377.285V10H376.074V6.51172H372.086V10H370.879ZM381.697 10.1211C381.134 10.1211 380.643 9.99219 380.224 9.73437C379.805 9.47656 379.479 9.11589 379.247 8.65234C379.016 8.1888 378.9 7.64714 378.9 7.02734C378.9 6.40495 379.016 5.86068 379.247 5.39453C379.479 4.92839 379.805 4.56641 380.224 4.30859C380.643 4.05078 381.134 3.92188 381.697 3.92188C382.259 3.92188 382.75 4.05078 383.169 4.30859C383.588 4.56641 383.914 4.92839 384.146 5.39453C384.378 5.86068 384.493 6.40495 384.493 7.02734C384.493 7.64714 384.378 8.1888 384.146 8.65234C383.914 9.11589 383.588 9.47656 383.169 9.73437C382.75 9.99219 382.259 10.1211 381.697 10.1211ZM381.7 9.14062C382.065 9.14062 382.367 9.04427 382.607 8.85156C382.846 8.65885 383.023 8.40234 383.138 8.08203C383.255 7.76172 383.314 7.40885 383.314 7.02344C383.314 6.64062 383.255 6.28906 383.138 5.96875C383.023 5.64583 382.846 5.38672 382.607 5.19141C382.367 4.99609 382.065 4.89844 381.7 4.89844C381.333 4.89844 381.029 4.99609 380.786 5.19141C380.547 5.38672 380.368 5.64583 380.251 5.96875C380.137 6.28906 380.079 6.64062 380.079 7.02344C380.079 7.40885 380.137 7.76172 380.251 8.08203C380.368 8.40234 380.547 8.65885 380.786 8.85156C381.029 9.04427 381.333 9.14062 381.7 9.14062ZM386.017 12.25V4H387.158V4.97266H387.255C387.323 4.84766 387.421 4.70312 387.548 4.53906C387.676 4.375 387.853 4.23177 388.08 4.10937C388.306 3.98438 388.606 3.92188 388.978 3.92188C389.462 3.92188 389.895 4.04427 390.275 4.28906C390.655 4.53385 390.953 4.88672 391.169 5.34766C391.388 5.80859 391.498 6.36328 391.498 7.01172C391.498 7.66016 391.39 8.21615 391.173 8.67969C390.957 9.14062 390.66 9.49609 390.283 9.74609C389.905 9.99349 389.474 10.1172 388.99 10.1172C388.625 10.1172 388.327 10.056 388.095 9.93359C387.866 9.8112 387.686 9.66797 387.556 9.50391C387.426 9.33984 387.326 9.19401 387.255 9.06641H387.185V12.25H386.017ZM387.162 7C387.162 7.42187 387.223 7.79167 387.345 8.10938C387.468 8.42708 387.645 8.67578 387.877 8.85547C388.108 9.03255 388.392 9.12109 388.728 9.12109C389.077 9.12109 389.369 9.02865 389.603 8.84375C389.837 8.65625 390.015 8.40234 390.134 8.08203C390.257 7.76172 390.318 7.40104 390.318 7C390.318 6.60417 390.258 6.2487 390.138 5.93359C390.021 5.61849 389.844 5.36979 389.607 5.1875C389.373 5.00521 389.08 4.91406 388.728 4.91406C388.39 4.91406 388.103 5.0013 387.869 5.17578C387.637 5.35026 387.461 5.59375 387.341 5.90625C387.222 6.21875 387.162 6.58333 387.162 7ZM396.393 8.55469L398.331 4H399.339L396.827 10H395.96L393.499 4H394.495L396.393 8.55469ZM394.171 4V10H393.026V4H394.171ZM398.647 10V4H399.784V10H398.647ZM403.307 10.1328C402.927 10.1328 402.583 10.0625 402.276 9.92187C401.968 9.77865 401.725 9.57161 401.545 9.30078C401.368 9.02995 401.279 8.69792 401.279 8.30469C401.279 7.96615 401.345 7.6875 401.475 7.46875C401.605 7.25 401.781 7.07682 402.002 6.94922C402.223 6.82161 402.471 6.72526 402.744 6.66016C403.018 6.59505 403.296 6.54557 403.58 6.51172C403.94 6.47005 404.231 6.4362 404.455 6.41016C404.679 6.38151 404.842 6.33594 404.943 6.27344C405.045 6.21094 405.096 6.10937 405.096 5.96875V5.94141C405.096 5.60026 404.999 5.33594 404.807 5.14844C404.617 4.96094 404.333 4.86719 403.955 4.86719C403.562 4.86719 403.252 4.95443 403.026 5.12891C402.802 5.30078 402.647 5.49219 402.561 5.70312L401.463 5.45312C401.593 5.08854 401.783 4.79427 402.033 4.57031C402.286 4.34375 402.576 4.17969 402.904 4.07812C403.233 3.97396 403.578 3.92188 403.94 3.92188C404.179 3.92188 404.433 3.95052 404.701 4.00781C404.972 4.0625 405.225 4.16406 405.459 4.3125C405.696 4.46094 405.89 4.67318 406.041 4.94922C406.192 5.22266 406.268 5.57813 406.268 6.01563V10H405.127V9.17969H405.08C405.005 9.33073 404.891 9.47917 404.74 9.625C404.589 9.77083 404.395 9.89193 404.158 9.98828C403.921 10.0846 403.637 10.1328 403.307 10.1328ZM403.561 9.19531C403.884 9.19531 404.16 9.13151 404.389 9.00391C404.621 8.8763 404.796 8.70964 404.916 8.50391C405.039 8.29557 405.1 8.07292 405.1 7.83594V7.0625C405.058 7.10417 404.977 7.14323 404.858 7.17969C404.74 7.21354 404.606 7.24349 404.455 7.26953C404.304 7.29297 404.157 7.3151 404.014 7.33594C403.871 7.35417 403.751 7.36979 403.654 7.38281C403.428 7.41146 403.221 7.45964 403.033 7.52734C402.848 7.59505 402.7 7.69271 402.588 7.82031C402.479 7.94531 402.424 8.11198 402.424 8.32031C402.424 8.60937 402.531 8.82812 402.744 8.97656C402.958 9.1224 403.23 9.19531 403.561 9.19531ZM407.571 10L407.567 8.98828H407.782C407.948 8.98828 408.088 8.95312 408.2 8.88281C408.314 8.8099 408.408 8.6875 408.481 8.51562C408.554 8.34375 408.61 8.10677 408.649 7.80469C408.688 7.5 408.717 7.11719 408.735 6.65625L408.84 4H413.028V10H411.883V5.00781H409.922L409.829 7.04688C409.805 7.54167 409.754 7.97396 409.676 8.34375C409.601 8.71354 409.49 9.02214 409.344 9.26953C409.198 9.51432 409.011 9.69792 408.782 9.82031C408.552 9.9401 408.274 10 407.946 10H407.571ZM415.684 6.0625H417.426C418.161 6.0625 418.726 6.24479 419.122 6.60937C419.518 6.97396 419.716 7.44401 419.716 8.01953C419.716 8.39453 419.627 8.73177 419.45 9.03125C419.273 9.33073 419.014 9.56771 418.673 9.74219C418.331 9.91406 417.916 10 417.426 10H414.805V4H415.95V8.99219H417.426C417.762 8.99219 418.038 8.90495 418.255 8.73047C418.471 8.55339 418.579 8.32813 418.579 8.05469C418.579 7.76562 418.471 7.52995 418.255 7.34766C418.038 7.16276 417.762 7.07031 417.426 7.07031H415.684V6.0625ZM425.311 6.49609V7.50781H422.061V6.49609H425.311ZM422.39 4V10H421.245V4H422.39ZM426.128 4V10H424.987V4H426.128ZM430.438 10.1211C429.875 10.1211 429.384 9.99219 428.965 9.73437C428.546 9.47656 428.22 9.11589 427.989 8.65234C427.757 8.1888 427.641 7.64714 427.641 7.02734C427.641 6.40495 427.757 5.86068 427.989 5.39453C428.22 4.92839 428.546 4.56641 428.965 4.30859C429.384 4.05078 429.875 3.92188 430.438 3.92188C431 3.92188 431.491 4.05078 431.91 4.30859C432.33 4.56641 432.655 4.92839 432.887 5.39453C433.119 5.86068 433.235 6.40495 433.235 7.02734C433.235 7.64714 433.119 8.1888 432.887 8.65234C432.655 9.11589 432.33 9.47656 431.91 9.73437C431.491 9.99219 431 10.1211 430.438 10.1211ZM430.442 9.14062C430.806 9.14062 431.108 9.04427 431.348 8.85156C431.587 8.65885 431.765 8.40234 431.879 8.08203C431.996 7.76172 432.055 7.40885 432.055 7.02344C432.055 6.64062 431.996 6.28906 431.879 5.96875C431.765 5.64583 431.587 5.38672 431.348 5.19141C431.108 4.99609 430.806 4.89844 430.442 4.89844C430.074 4.89844 429.77 4.99609 429.528 5.19141C429.288 5.38672 429.11 5.64583 428.992 5.96875C428.878 6.28906 428.821 6.64062 428.821 7.02344C428.821 7.40885 428.878 7.76172 428.992 8.08203C429.11 8.40234 429.288 8.65885 429.528 8.85156C429.77 9.04427 430.074 9.14062 430.442 9.14062ZM437.344 10.1211C436.753 10.1211 436.244 9.99479 435.817 9.74219C435.392 9.48698 435.064 9.12891 434.833 8.66797C434.603 8.20443 434.489 7.66146 434.489 7.03906C434.489 6.42448 434.603 5.88281 434.833 5.41406C435.064 4.94531 435.387 4.57943 435.801 4.31641C436.218 4.05339 436.705 3.92188 437.262 3.92188C437.601 3.92188 437.929 3.97786 438.247 4.08984C438.564 4.20182 438.849 4.3776 439.102 4.61719C439.355 4.85677 439.554 5.16797 439.7 5.55078C439.846 5.93099 439.918 6.39323 439.918 6.9375V7.35156H435.149V6.47656H438.774C438.774 6.16927 438.711 5.89714 438.586 5.66016C438.461 5.42057 438.286 5.23177 438.059 5.09375C437.835 4.95573 437.572 4.88672 437.27 4.88672C436.942 4.88672 436.655 4.96745 436.411 5.12891C436.168 5.28776 435.981 5.49609 435.848 5.75391C435.718 6.00911 435.653 6.28646 435.653 6.58594V7.26953C435.653 7.67057 435.723 8.01172 435.864 8.29297C436.007 8.57422 436.206 8.78906 436.461 8.9375C436.717 9.08333 437.015 9.15625 437.356 9.15625C437.577 9.15625 437.779 9.125 437.961 9.0625C438.144 8.9974 438.301 8.90104 438.434 8.77344C438.567 8.64583 438.668 8.48828 438.739 8.30078L439.844 8.5C439.756 8.82552 439.597 9.11068 439.368 9.35547C439.141 9.59766 438.856 9.78646 438.512 9.92187C438.171 10.0547 437.782 10.1211 437.344 10.1211ZM370.785 22V16H371.953V18.5156H372.516L374.496 16H375.941L373.617 18.918L375.969 22H374.52L372.711 19.6016H371.953V22H370.785ZM379.376 22.1211C378.814 22.1211 378.323 21.9922 377.904 21.7344C377.484 21.4766 377.159 21.1159 376.927 20.6523C376.695 20.1888 376.579 19.6471 376.579 19.0273C376.579 18.4049 376.695 17.8607 376.927 17.3945C377.159 16.9284 377.484 16.5664 377.904 16.3086C378.323 16.0508 378.814 15.9219 379.376 15.9219C379.939 15.9219 380.43 16.0508 380.849 16.3086C381.268 16.5664 381.594 16.9284 381.825 17.3945C382.057 17.8607 382.173 18.4049 382.173 19.0273C382.173 19.6471 382.057 20.1888 381.825 20.6523C381.594 21.1159 381.268 21.4766 380.849 21.7344C380.43 21.9922 379.939 22.1211 379.376 22.1211ZM379.38 21.1406C379.745 21.1406 380.047 21.0443 380.286 20.8516C380.526 20.6589 380.703 20.4023 380.818 20.082C380.935 19.7617 380.993 19.4089 380.993 19.0234C380.993 18.6406 380.935 18.2891 380.818 17.9687C380.703 17.6458 380.526 17.3867 380.286 17.1914C380.047 16.9961 379.745 16.8984 379.38 16.8984C379.013 16.8984 378.708 16.9961 378.466 17.1914C378.227 17.3867 378.048 17.6458 377.931 17.9687C377.816 18.2891 377.759 18.6406 377.759 19.0234C377.759 19.4089 377.816 19.7617 377.931 20.082C378.048 20.4023 378.227 20.6589 378.466 20.8516C378.708 21.0443 379.013 21.1406 379.38 21.1406ZM383.224 22L383.22 20.9883H383.435C383.602 20.9883 383.741 20.9531 383.853 20.8828C383.968 20.8099 384.061 20.6875 384.134 20.5156C384.207 20.3437 384.263 20.1068 384.302 19.8047C384.341 19.5 384.37 19.1172 384.388 18.6562L384.494 16H388.681V22H387.537V17.0078H385.576L385.482 19.0469C385.459 19.5417 385.408 19.974 385.33 20.3437C385.254 20.7135 385.143 21.0221 384.998 21.2695C384.852 21.5143 384.664 21.6979 384.435 21.8203C384.206 21.9401 383.927 22 383.599 22H383.224ZM391.603 20.3633L394.248 16H395.506V22H394.361V17.6328L391.728 22H390.459V16H391.603V20.3633ZM402.112 16V22H400.972V16H402.112ZM401.616 18.7852V19.793C401.437 19.8659 401.247 19.931 401.046 19.9883C400.845 20.043 400.635 20.0859 400.413 20.1172C400.192 20.1484 399.961 20.1641 399.722 20.1641C398.98 20.1641 398.39 19.9831 397.952 19.6211C397.515 19.2565 397.296 18.6992 397.296 17.9492V15.9883H398.433V17.9492C398.433 18.2331 398.485 18.4635 398.589 18.6406C398.693 18.8177 398.842 18.9479 399.034 19.0312C399.227 19.1146 399.456 19.1562 399.722 19.1562C400.073 19.1562 400.398 19.1237 400.694 19.0586C400.994 18.9909 401.301 18.8997 401.616 18.7852ZM406.472 22.1211C405.881 22.1211 405.372 21.9948 404.945 21.7422C404.52 21.487 404.192 21.1289 403.96 20.668C403.731 20.2044 403.617 19.6615 403.617 19.0391C403.617 18.4245 403.731 17.8828 403.96 17.4141C404.192 16.9453 404.515 16.5794 404.929 16.3164C405.346 16.0534 405.833 15.9219 406.39 15.9219C406.729 15.9219 407.057 15.9779 407.374 16.0898C407.692 16.2018 407.977 16.3776 408.23 16.6172C408.482 16.8568 408.682 17.168 408.828 17.5508C408.973 17.931 409.046 18.3932 409.046 18.9375V19.3516H404.277V18.4766H407.902C407.902 18.1693 407.839 17.8971 407.714 17.6602C407.589 17.4206 407.413 17.2318 407.187 17.0937C406.963 16.9557 406.7 16.8867 406.398 16.8867C406.07 16.8867 405.783 16.9674 405.538 17.1289C405.296 17.2878 405.109 17.4961 404.976 17.7539C404.846 18.0091 404.781 18.2865 404.781 18.5859V19.2695C404.781 19.6706 404.851 20.0117 404.992 20.293C405.135 20.5742 405.334 20.7891 405.589 20.9375C405.844 21.0833 406.143 21.1562 406.484 21.1562C406.705 21.1562 406.907 21.125 407.089 21.0625C407.272 20.9974 407.429 20.901 407.562 20.7734C407.695 20.6458 407.796 20.4883 407.867 20.3008L408.972 20.5C408.884 20.8255 408.725 21.1107 408.496 21.3555C408.269 21.5977 407.984 21.7865 407.64 21.9219C407.299 22.0547 406.91 22.1211 406.472 22.1211ZM413.09 22.1211C412.509 22.1211 412.009 21.9896 411.59 21.7266C411.173 21.4609 410.853 21.0951 410.629 20.6289C410.405 20.1628 410.293 19.6289 410.293 19.0273C410.293 18.418 410.407 17.8802 410.636 17.4141C410.866 16.9453 411.188 16.5794 411.605 16.3164C412.022 16.0534 412.513 15.9219 413.078 15.9219C413.534 15.9219 413.94 16.0065 414.297 16.1758C414.653 16.3424 414.941 16.5768 415.16 16.8789C415.381 17.181 415.513 17.5339 415.554 17.9375H414.418C414.355 17.6562 414.212 17.4141 413.988 17.2109C413.767 17.0078 413.47 16.9062 413.097 16.9062C412.772 16.9062 412.487 16.9922 412.242 17.1641C412 17.3333 411.811 17.5755 411.675 17.8906C411.54 18.2031 411.472 18.5729 411.472 19C411.472 19.4375 411.539 19.8151 411.672 20.1328C411.804 20.4505 411.992 20.6966 412.234 20.8711C412.479 21.0456 412.767 21.1328 413.097 21.1328C413.319 21.1328 413.519 21.0924 413.699 21.0117C413.881 20.9284 414.034 20.8099 414.156 20.6562C414.281 20.5026 414.368 20.3177 414.418 20.1016H415.554C415.513 20.4896 415.386 20.8359 415.175 21.1406C414.965 21.4453 414.682 21.6849 414.328 21.8594C413.976 22.0339 413.563 22.1211 413.09 22.1211ZM416.569 17.0078V16H421.632V17.0078H419.675V22H418.534V17.0078H416.569ZM423.087 22V16H425.575C426.253 16 426.789 16.1445 427.185 16.4336C427.581 16.7201 427.779 17.1094 427.779 17.6016C427.779 17.9531 427.667 18.2318 427.443 18.4375C427.219 18.6432 426.922 18.7813 426.552 18.8516C426.82 18.8828 427.066 18.9635 427.29 19.0937C427.514 19.2214 427.694 19.3932 427.829 19.6094C427.967 19.8255 428.036 20.0833 428.036 20.3828C428.036 20.7005 427.954 20.9818 427.79 21.2266C427.626 21.4687 427.388 21.6589 427.075 21.7969C426.766 21.9323 426.392 22 425.954 22H423.087ZM424.185 21.0234H425.954C426.243 21.0234 426.47 20.9544 426.634 20.8164C426.798 20.6784 426.88 20.4909 426.88 20.2539C426.88 19.9753 426.798 19.7565 426.634 19.5977C426.47 19.4362 426.243 19.3555 425.954 19.3555H424.185V21.0234ZM424.185 18.5H425.587C425.806 18.5 425.993 18.4687 426.15 18.4062C426.309 18.3437 426.43 18.2552 426.513 18.1406C426.599 18.0234 426.642 17.8854 426.642 17.7266C426.642 17.4948 426.547 17.3138 426.357 17.1836C426.167 17.0534 425.906 16.9883 425.575 16.9883H424.185V18.5ZM432.065 22.1211C431.502 22.1211 431.012 21.9922 430.592 21.7344C430.173 21.4766 429.848 21.1159 429.616 20.6523C429.384 20.1888 429.268 19.6471 429.268 19.0273C429.268 18.4049 429.384 17.8607 429.616 17.3945C429.848 16.9284 430.173 16.5664 430.592 16.3086C431.012 16.0508 431.502 15.9219 432.065 15.9219C432.627 15.9219 433.118 16.0508 433.538 16.3086C433.957 16.5664 434.282 16.9284 434.514 17.3945C434.746 17.8607 434.862 18.4049 434.862 19.0273C434.862 19.6471 434.746 20.1888 434.514 20.6523C434.282 21.1159 433.957 21.4766 433.538 21.7344C433.118 21.9922 432.627 22.1211 432.065 22.1211ZM432.069 21.1406C432.433 21.1406 432.736 21.0443 432.975 20.8516C433.215 20.6589 433.392 20.4023 433.506 20.082C433.624 19.7617 433.682 19.4089 433.682 19.0234C433.682 18.6406 433.624 18.2891 433.506 17.9687C433.392 17.6458 433.215 17.3867 432.975 17.1914C432.736 16.9961 432.433 16.8984 432.069 16.8984C431.702 16.8984 431.397 16.9961 431.155 17.1914C430.915 17.3867 430.737 17.6458 430.62 17.9687C430.505 18.2891 430.448 18.6406 430.448 19.0234C430.448 19.4089 430.505 19.7617 430.62 20.082C430.737 20.4023 430.915 20.6589 431.155 20.8516C431.397 21.0443 431.702 21.1406 432.069 21.1406ZM439.161 20.4141H440.357C440.372 20.6589 440.483 20.8477 440.689 20.9805C440.897 21.1133 441.166 21.1797 441.497 21.1797C441.833 21.1797 442.12 21.1081 442.357 20.9648C442.594 20.819 442.712 20.5937 442.712 20.2891C442.712 20.1068 442.666 19.9479 442.575 19.8125C442.487 19.6745 442.36 19.5677 442.196 19.4922C442.035 19.4167 441.844 19.3789 441.622 19.3789H440.646V18.4609H441.622C441.953 18.4609 442.2 18.3854 442.364 18.2344C442.528 18.0833 442.61 17.8945 442.61 17.668C442.61 17.4232 442.522 17.2266 442.345 17.0781C442.17 16.9271 441.927 16.8516 441.614 16.8516C441.297 16.8516 441.032 16.9232 440.821 17.0664C440.61 17.207 440.5 17.3893 440.489 17.6133H439.31C439.317 17.2773 439.419 16.9831 439.614 16.7305C439.812 16.4753 440.078 16.2773 440.411 16.1367C440.747 15.9935 441.129 15.9219 441.556 15.9219C442.001 15.9219 442.386 15.9935 442.712 16.1367C443.038 16.2799 443.289 16.4779 443.466 16.7305C443.646 16.9831 443.735 17.2734 443.735 17.6016C443.735 17.9323 443.636 18.2031 443.439 18.4141C443.243 18.6224 442.988 18.7721 442.673 18.8633V18.9258C442.905 18.9414 443.11 19.0117 443.29 19.1367C443.47 19.2617 443.61 19.4271 443.712 19.6328C443.814 19.8385 443.864 20.0716 443.864 20.332C443.864 20.6992 443.763 21.0169 443.56 21.2852C443.359 21.5534 443.08 21.7604 442.724 21.9062C442.37 22.0495 441.965 22.1211 441.509 22.1211C441.066 22.1211 440.669 22.0521 440.317 21.9141C439.969 21.7734 439.691 21.5755 439.485 21.3203C439.282 21.0651 439.174 20.763 439.161 20.4141ZM447.036 22.1328C446.656 22.1328 446.313 22.0625 446.005 21.9219C445.698 21.7786 445.454 21.5716 445.275 21.3008C445.098 21.0299 445.009 20.6979 445.009 20.3047C445.009 19.9661 445.074 19.6875 445.204 19.4687C445.335 19.25 445.51 19.0768 445.732 18.9492C445.953 18.8216 446.201 18.7253 446.474 18.6602C446.747 18.5951 447.026 18.5456 447.31 18.5117C447.669 18.4701 447.961 18.4362 448.185 18.4102C448.409 18.3815 448.572 18.3359 448.673 18.2734C448.775 18.2109 448.826 18.1094 448.826 17.9687V17.9414C448.826 17.6003 448.729 17.3359 448.536 17.1484C448.346 16.9609 448.063 16.8672 447.685 16.8672C447.292 16.8672 446.982 16.9544 446.755 17.1289C446.531 17.3008 446.376 17.4922 446.29 17.7031L445.193 17.4531C445.323 17.0885 445.513 16.7943 445.763 16.5703C446.016 16.3437 446.306 16.1797 446.634 16.0781C446.962 15.974 447.307 15.9219 447.669 15.9219C447.909 15.9219 448.163 15.9505 448.431 16.0078C448.702 16.0625 448.954 16.1641 449.189 16.3125C449.426 16.4609 449.62 16.6732 449.771 16.9492C449.922 17.2227 449.997 17.5781 449.997 18.0156V22H448.857V21.1797H448.81C448.734 21.3307 448.621 21.4792 448.47 21.625C448.319 21.7708 448.125 21.8919 447.888 21.9883C447.651 22.0846 447.367 22.1328 447.036 22.1328ZM447.29 21.1953C447.613 21.1953 447.889 21.1315 448.119 21.0039C448.35 20.8763 448.526 20.7096 448.646 20.5039C448.768 20.2956 448.829 20.0729 448.829 19.8359V19.0625C448.788 19.1042 448.707 19.1432 448.587 19.1797C448.47 19.2135 448.336 19.2435 448.185 19.2695C448.034 19.293 447.887 19.3151 447.744 19.3359C447.6 19.3542 447.48 19.3698 447.384 19.3828C447.158 19.4115 446.951 19.4596 446.763 19.5273C446.578 19.5951 446.43 19.6927 446.318 19.8203C446.208 19.9453 446.154 20.112 446.154 20.3203C446.154 20.6094 446.26 20.8281 446.474 20.9766C446.688 21.1224 446.96 21.1953 447.29 21.1953ZM451.773 22V16H456.668V22H455.523V17.0078H452.91V22H451.773ZM458.449 24.25V16H459.59V16.9727H459.687C459.755 16.8477 459.853 16.7031 459.98 16.5391C460.108 16.375 460.285 16.2318 460.512 16.1094C460.738 15.9844 461.038 15.9219 461.41 15.9219C461.894 15.9219 462.327 16.0443 462.707 16.2891C463.087 16.5339 463.385 16.8867 463.601 17.3477C463.82 17.8086 463.93 18.3633 463.93 19.0117C463.93 19.6602 463.822 20.2161 463.605 20.6797C463.389 21.1406 463.092 21.4961 462.715 21.7461C462.337 21.9935 461.906 22.1172 461.422 22.1172C461.057 22.1172 460.759 22.056 460.527 21.9336C460.298 21.8112 460.118 21.668 459.988 21.5039C459.858 21.3398 459.758 21.194 459.687 21.0664H459.617V24.25H458.449ZM459.594 19C459.594 19.4219 459.655 19.7917 459.777 20.1094C459.9 20.4271 460.077 20.6758 460.309 20.8555C460.54 21.0326 460.824 21.1211 461.16 21.1211C461.509 21.1211 461.801 21.0286 462.035 20.8437C462.269 20.6562 462.447 20.4023 462.566 20.082C462.689 19.7617 462.75 19.401 462.75 19C462.75 18.6042 462.69 18.2487 462.57 17.9336C462.453 17.6185 462.276 17.3698 462.039 17.1875C461.805 17.0052 461.512 16.9141 461.16 16.9141C460.822 16.9141 460.535 17.0013 460.301 17.1758C460.069 17.3503 459.893 17.5937 459.773 17.9062C459.654 18.2187 459.594 18.5833 459.594 19ZM467.986 22.1211C467.423 22.1211 466.932 21.9922 466.513 21.7344C466.094 21.4766 465.768 21.1159 465.536 20.6523C465.305 20.1888 465.189 19.6471 465.189 19.0273C465.189 18.4049 465.305 17.8607 465.536 17.3945C465.768 16.9284 466.094 16.5664 466.513 16.3086C466.932 16.0508 467.423 15.9219 467.986 15.9219C468.548 15.9219 469.039 16.0508 469.458 16.3086C469.877 16.5664 470.203 16.9284 470.435 17.3945C470.667 17.8607 470.782 18.4049 470.782 19.0273C470.782 19.6471 470.667 20.1888 470.435 20.6523C470.203 21.1159 469.877 21.4766 469.458 21.7344C469.039 21.9922 468.548 22.1211 467.986 22.1211ZM467.989 21.1406C468.354 21.1406 468.656 21.0443 468.896 20.8516C469.135 20.6589 469.312 20.4023 469.427 20.082C469.544 19.7617 469.603 19.4089 469.603 19.0234C469.603 18.6406 469.544 18.2891 469.427 17.9687C469.312 17.6458 469.135 17.3867 468.896 17.1914C468.656 16.9961 468.354 16.8984 467.989 16.8984C467.622 16.8984 467.318 16.9961 467.075 17.1914C466.836 17.3867 466.657 17.6458 466.54 17.9687C466.426 18.2891 466.368 18.6406 466.368 19.0234C466.368 19.4089 466.426 19.7617 466.54 20.082C466.657 20.4023 466.836 20.6589 467.075 20.8516C467.318 21.0443 467.622 21.1406 467.989 21.1406ZM474.833 22.1211C474.253 22.1211 473.753 21.9896 473.333 21.7266C472.917 21.4609 472.596 21.0951 472.373 20.6289C472.149 20.1628 472.037 19.6289 472.037 19.0273C472.037 18.418 472.151 17.8802 472.38 17.4141C472.61 16.9453 472.932 16.5794 473.349 16.3164C473.766 16.0534 474.257 15.9219 474.822 15.9219C475.277 15.9219 475.684 16.0065 476.041 16.1758C476.397 16.3424 476.685 16.5768 476.904 16.8789C477.125 17.181 477.257 17.5339 477.298 17.9375H476.162C476.099 17.6562 475.956 17.4141 475.732 17.2109C475.511 17.0078 475.214 16.9062 474.841 16.9062C474.516 16.9062 474.231 16.9922 473.986 17.1641C473.744 17.3333 473.555 17.5755 473.419 17.8906C473.284 18.2031 473.216 18.5729 473.216 19C473.216 19.4375 473.283 19.8151 473.416 20.1328C473.548 20.4505 473.736 20.6966 473.978 20.8711C474.223 21.0456 474.511 21.1328 474.841 21.1328C475.063 21.1328 475.263 21.0924 475.443 21.0117C475.625 20.9284 475.777 20.8099 475.9 20.6562C476.025 20.5026 476.112 20.3177 476.162 20.1016H477.298C477.257 20.4896 477.13 20.8359 476.919 21.1406C476.708 21.4453 476.426 21.6849 476.072 21.8594C475.72 22.0339 475.307 22.1211 474.833 22.1211ZM481.295 22.1211C480.732 22.1211 480.241 21.9922 479.822 21.7344C479.403 21.4766 479.077 21.1159 478.845 20.6523C478.614 20.1888 478.498 19.6471 478.498 19.0273C478.498 18.4049 478.614 17.8607 478.845 17.3945C479.077 16.9284 479.403 16.5664 479.822 16.3086C480.241 16.0508 480.732 15.9219 481.295 15.9219C481.857 15.9219 482.348 16.0508 482.767 16.3086C483.187 16.5664 483.512 16.9284 483.744 17.3945C483.976 17.8607 484.092 18.4049 484.092 19.0273C484.092 19.6471 483.976 20.1888 483.744 20.6523C483.512 21.1159 483.187 21.4766 482.767 21.7344C482.348 21.9922 481.857 22.1211 481.295 22.1211ZM481.299 21.1406C481.663 21.1406 481.965 21.0443 482.205 20.8516C482.444 20.6589 482.622 20.4023 482.736 20.082C482.853 19.7617 482.912 19.4089 482.912 19.0234C482.912 18.6406 482.853 18.2891 482.736 17.9687C482.622 17.6458 482.444 17.3867 482.205 17.1914C481.965 16.9961 481.663 16.8984 481.299 16.8984C480.931 16.8984 480.627 16.9961 480.385 17.1914C480.145 17.3867 479.967 17.6458 479.849 17.9687C479.735 18.2891 479.677 18.6406 479.677 19.0234C479.677 19.4089 479.735 19.7617 479.849 20.082C479.967 20.4023 480.145 20.6589 480.385 20.8516C480.627 21.0443 480.931 21.1406 481.299 21.1406ZM485.615 22V16H488.104C488.781 16 489.317 16.1445 489.713 16.4336C490.109 16.7201 490.307 17.1094 490.307 17.6016C490.307 17.9531 490.195 18.2318 489.971 18.4375C489.747 18.6432 489.45 18.7813 489.08 18.8516C489.348 18.8828 489.594 18.9635 489.818 19.0937C490.042 19.2214 490.222 19.3932 490.357 19.6094C490.495 19.8255 490.564 20.0833 490.564 20.3828C490.564 20.7005 490.482 20.9818 490.318 21.2266C490.154 21.4687 489.916 21.6589 489.604 21.7969C489.294 21.9323 488.92 22 488.482 22H485.615ZM486.713 21.0234H488.482C488.772 21.0234 488.998 20.9544 489.162 20.8164C489.326 20.6784 489.408 20.4909 489.408 20.2539C489.408 19.9753 489.326 19.7565 489.162 19.5977C488.998 19.4362 488.772 19.3555 488.482 19.3555H486.713V21.0234ZM486.713 18.5H488.115C488.334 18.5 488.522 18.4687 488.678 18.4062C488.837 18.3437 488.958 18.2552 489.041 18.1406C489.127 18.0234 489.17 17.8854 489.17 17.7266C489.17 17.4948 489.075 17.3138 488.885 17.1836C488.695 17.0534 488.434 16.9883 488.104 16.9883H486.713V18.5Z" fill="#080809"/>
<rect x="511" y="1" width="22" height="22" fill="#0058AA"/>
<path d="M541.879 10V2H543.086V5.47656H547.074V2H548.285V10H547.074V6.51172H543.086V10H541.879ZM551.314 8.36328L553.958 4H555.216V10H554.072V5.63281L551.439 10H550.169V4H551.314V8.36328ZM556.651 8.41406H557.846C557.862 8.65885 557.973 8.84766 558.178 8.98047C558.387 9.11328 558.656 9.17969 558.987 9.17969C559.323 9.17969 559.609 9.10807 559.846 8.96484C560.083 8.81901 560.202 8.59375 560.202 8.28906C560.202 8.10677 560.156 7.94792 560.065 7.8125C559.976 7.67448 559.85 7.56771 559.686 7.49219C559.525 7.41667 559.333 7.37891 559.112 7.37891H558.135V6.46094H559.112C559.443 6.46094 559.69 6.38542 559.854 6.23437C560.018 6.08333 560.1 5.89453 560.1 5.66797C560.1 5.42318 560.012 5.22656 559.835 5.07812C559.66 4.92708 559.417 4.85156 559.104 4.85156C558.786 4.85156 558.522 4.92318 558.311 5.06641C558.1 5.20703 557.989 5.38932 557.979 5.61328H556.799C556.807 5.27734 556.909 4.98307 557.104 4.73047C557.302 4.47526 557.568 4.27734 557.901 4.13672C558.237 3.99349 558.618 3.92188 559.045 3.92188C559.491 3.92188 559.876 3.99349 560.202 4.13672C560.527 4.27995 560.779 4.47786 560.956 4.73047C561.135 4.98307 561.225 5.27344 561.225 5.60156C561.225 5.93229 561.126 6.20312 560.928 6.41406C560.733 6.6224 560.478 6.77214 560.163 6.86328V6.92578C560.394 6.94141 560.6 7.01172 560.78 7.13672C560.96 7.26172 561.1 7.42708 561.202 7.63281C561.303 7.83854 561.354 8.07161 561.354 8.33203C561.354 8.69922 561.252 9.01693 561.049 9.28516C560.849 9.55339 560.57 9.76042 560.213 9.90625C559.859 10.0495 559.454 10.1211 558.999 10.1211C558.556 10.1211 558.159 10.0521 557.807 9.91406C557.458 9.77344 557.181 9.57552 556.975 9.32031C556.772 9.0651 556.664 8.76302 556.651 8.41406ZM562.78 10V4H563.948V6.51562H564.511L566.491 4H567.936L565.612 6.91797L567.964 10H566.514L564.706 7.60156H563.948V10H562.78ZM571.371 10.1211C570.809 10.1211 570.318 9.99219 569.899 9.73437C569.479 9.47656 569.154 9.11589 568.922 8.65234C568.69 8.1888 568.574 7.64714 568.574 7.02734C568.574 6.40495 568.69 5.86068 568.922 5.39453C569.154 4.92839 569.479 4.56641 569.899 4.30859C570.318 4.05078 570.809 3.92188 571.371 3.92188C571.934 3.92188 572.425 4.05078 572.844 4.30859C573.263 4.56641 573.589 4.92839 573.82 5.39453C574.052 5.86068 574.168 6.40495 574.168 7.02734C574.168 7.64714 574.052 8.1888 573.82 8.65234C573.589 9.11589 573.263 9.47656 572.844 9.73437C572.425 9.99219 571.934 10.1211 571.371 10.1211ZM571.375 9.14062C571.74 9.14062 572.042 9.04427 572.281 8.85156C572.521 8.65885 572.698 8.40234 572.813 8.08203C572.93 7.76172 572.988 7.40885 572.988 7.02344C572.988 6.64062 572.93 6.28906 572.813 5.96875C572.698 5.64583 572.521 5.38672 572.281 5.19141C572.042 4.99609 571.74 4.89844 571.375 4.89844C571.008 4.89844 570.703 4.99609 570.461 5.19141C570.221 5.38672 570.043 5.64583 569.926 5.96875C569.811 6.28906 569.754 6.64062 569.754 7.02344C569.754 7.40885 569.811 7.76172 569.926 8.08203C570.043 8.40234 570.221 8.65885 570.461 8.85156C570.703 9.04427 571.008 9.14062 571.375 9.14062ZM578.278 10.1211C577.687 10.1211 577.177 9.99479 576.75 9.74219C576.326 9.48698 575.998 9.12891 575.766 8.66797C575.537 8.20443 575.422 7.66146 575.422 7.03906C575.422 6.42448 575.537 5.88281 575.766 5.41406C575.998 4.94531 576.321 4.57943 576.735 4.31641C577.151 4.05339 577.638 3.92188 578.196 3.92188C578.534 3.92188 578.862 3.97786 579.18 4.08984C579.498 4.20182 579.783 4.3776 580.036 4.61719C580.288 4.85677 580.487 5.16797 580.633 5.55078C580.779 5.93099 580.852 6.39323 580.852 6.9375V7.35156H576.082V6.47656H579.707C579.707 6.16927 579.645 5.89714 579.52 5.66016C579.395 5.42057 579.219 5.23177 578.993 5.09375C578.769 4.95573 578.506 4.88672 578.204 4.88672C577.875 4.88672 577.589 4.96745 577.344 5.12891C577.102 5.28776 576.914 5.49609 576.782 5.75391C576.651 6.00911 576.586 6.28646 576.586 6.58594V7.26953C576.586 7.67057 576.657 8.01172 576.797 8.29297C576.94 8.57422 577.14 8.78906 577.395 8.9375C577.65 9.08333 577.948 9.15625 578.289 9.15625C578.511 9.15625 578.713 9.125 578.895 9.0625C579.077 8.9974 579.235 8.90104 579.368 8.77344C579.5 8.64583 579.602 8.48828 579.672 8.30078L580.778 8.5C580.689 8.82552 580.53 9.11068 580.301 9.35547C580.075 9.59766 579.789 9.78646 579.446 9.92187C579.105 10.0547 578.715 10.1211 578.278 10.1211ZM541.785 22V16H542.953V18.5156H543.516L545.496 16H546.941L544.617 18.918L546.969 22H545.52L543.711 19.6016H542.953V22H541.785ZM550.376 22.1211C549.814 22.1211 549.323 21.9922 548.904 21.7344C548.484 21.4766 548.159 21.1159 547.927 20.6523C547.695 20.1888 547.579 19.6471 547.579 19.0273C547.579 18.4049 547.695 17.8607 547.927 17.3945C548.159 16.9284 548.484 16.5664 548.904 16.3086C549.323 16.0508 549.814 15.9219 550.376 15.9219C550.939 15.9219 551.43 16.0508 551.849 16.3086C552.268 16.5664 552.594 16.9284 552.825 17.3945C553.057 17.8607 553.173 18.4049 553.173 19.0273C553.173 19.6471 553.057 20.1888 552.825 20.6523C552.594 21.1159 552.268 21.4766 551.849 21.7344C551.43 21.9922 550.939 22.1211 550.376 22.1211ZM550.38 21.1406C550.745 21.1406 551.047 21.0443 551.286 20.8516C551.526 20.6589 551.703 20.4023 551.818 20.082C551.935 19.7617 551.993 19.4089 551.993 19.0234C551.993 18.6406 551.935 18.2891 551.818 17.9687C551.703 17.6458 551.526 17.3867 551.286 17.1914C551.047 16.9961 550.745 16.8984 550.38 16.8984C550.013 16.8984 549.708 16.9961 549.466 17.1914C549.227 17.3867 549.048 17.6458 548.931 17.9687C548.816 18.2891 548.759 18.6406 548.759 19.0234C548.759 19.4089 548.816 19.7617 548.931 20.082C549.048 20.4023 549.227 20.6589 549.466 20.8516C549.708 21.0443 550.013 21.1406 550.38 21.1406ZM554.224 22L554.22 20.9883H554.435C554.602 20.9883 554.741 20.9531 554.853 20.8828C554.968 20.8099 555.061 20.6875 555.134 20.5156C555.207 20.3437 555.263 20.1068 555.302 19.8047C555.341 19.5 555.37 19.1172 555.388 18.6562L555.494 16H559.681V22H558.537V17.0078H556.576L556.482 19.0469C556.459 19.5417 556.408 19.974 556.33 20.3437C556.254 20.7135 556.143 21.0221 555.998 21.2695C555.852 21.5143 555.664 21.6979 555.435 21.8203C555.206 21.9401 554.927 22 554.599 22H554.224ZM562.603 20.3633L565.248 16H566.506V22H565.361V17.6328L562.728 22H561.459V16H562.603V20.3633ZM573.112 16V22H571.972V16H573.112ZM572.616 18.7852V19.793C572.437 19.8659 572.247 19.931 572.046 19.9883C571.845 20.043 571.635 20.0859 571.413 20.1172C571.192 20.1484 570.961 20.1641 570.722 20.1641C569.98 20.1641 569.39 19.9831 568.952 19.6211C568.515 19.2565 568.296 18.6992 568.296 17.9492V15.9883H569.433V17.9492C569.433 18.2331 569.485 18.4635 569.589 18.6406C569.693 18.8177 569.842 18.9479 570.034 19.0312C570.227 19.1146 570.456 19.1562 570.722 19.1562C571.073 19.1562 571.398 19.1237 571.694 19.0586C571.994 18.9909 572.301 18.8997 572.616 18.7852ZM577.472 22.1211C576.881 22.1211 576.372 21.9948 575.945 21.7422C575.52 21.487 575.192 21.1289 574.96 20.668C574.731 20.2044 574.617 19.6615 574.617 19.0391C574.617 18.4245 574.731 17.8828 574.96 17.4141C575.192 16.9453 575.515 16.5794 575.929 16.3164C576.346 16.0534 576.833 15.9219 577.39 15.9219C577.729 15.9219 578.057 15.9779 578.374 16.0898C578.692 16.2018 578.977 16.3776 579.23 16.6172C579.482 16.8568 579.682 17.168 579.828 17.5508C579.973 17.931 580.046 18.3932 580.046 18.9375V19.3516H575.277V18.4766H578.902C578.902 18.1693 578.839 17.8971 578.714 17.6602C578.589 17.4206 578.413 17.2318 578.187 17.0937C577.963 16.9557 577.7 16.8867 577.398 16.8867C577.07 16.8867 576.783 16.9674 576.538 17.1289C576.296 17.2878 576.109 17.4961 575.976 17.7539C575.846 18.0091 575.781 18.2865 575.781 18.5859V19.2695C575.781 19.6706 575.851 20.0117 575.992 20.293C576.135 20.5742 576.334 20.7891 576.589 20.9375C576.844 21.0833 577.143 21.1562 577.484 21.1562C577.705 21.1562 577.907 21.125 578.089 21.0625C578.272 20.9974 578.429 20.901 578.562 20.7734C578.695 20.6458 578.796 20.4883 578.867 20.3008L579.972 20.5C579.884 20.8255 579.725 21.1107 579.496 21.3555C579.269 21.5977 578.984 21.7865 578.64 21.9219C578.299 22.0547 577.91 22.1211 577.472 22.1211ZM584.09 22.1211C583.509 22.1211 583.009 21.9896 582.59 21.7266C582.173 21.4609 581.853 21.0951 581.629 20.6289C581.405 20.1628 581.293 19.6289 581.293 19.0273C581.293 18.418 581.407 17.8802 581.636 17.4141C581.866 16.9453 582.188 16.5794 582.605 16.3164C583.022 16.0534 583.513 15.9219 584.078 15.9219C584.534 15.9219 584.94 16.0065 585.297 16.1758C585.653 16.3424 585.941 16.5768 586.16 16.8789C586.381 17.181 586.513 17.5339 586.554 17.9375H585.418C585.355 17.6562 585.212 17.4141 584.988 17.2109C584.767 17.0078 584.47 16.9062 584.097 16.9062C583.772 16.9062 583.487 16.9922 583.242 17.1641C583 17.3333 582.811 17.5755 582.675 17.8906C582.54 18.2031 582.472 18.5729 582.472 19C582.472 19.4375 582.539 19.8151 582.672 20.1328C582.804 20.4505 582.992 20.6966 583.234 20.8711C583.479 21.0456 583.767 21.1328 584.097 21.1328C584.319 21.1328 584.519 21.0924 584.699 21.0117C584.881 20.9284 585.034 20.8099 585.156 20.6562C585.281 20.5026 585.368 20.3177 585.418 20.1016H586.554C586.513 20.4896 586.386 20.8359 586.175 21.1406C585.965 21.4453 585.682 21.6849 585.328 21.8594C584.976 22.0339 584.563 22.1211 584.09 22.1211ZM587.569 17.0078V16H592.632V17.0078H590.675V22H589.534V17.0078H587.569ZM594.087 22V16H596.575C597.253 16 597.789 16.1445 598.185 16.4336C598.581 16.7201 598.779 17.1094 598.779 17.6016C598.779 17.9531 598.667 18.2318 598.443 18.4375C598.219 18.6432 597.922 18.7813 597.552 18.8516C597.82 18.8828 598.066 18.9635 598.29 19.0937C598.514 19.2214 598.694 19.3932 598.829 19.6094C598.967 19.8255 599.036 20.0833 599.036 20.3828C599.036 20.7005 598.954 20.9818 598.79 21.2266C598.626 21.4687 598.388 21.6589 598.075 21.7969C597.766 21.9323 597.392 22 596.954 22H594.087ZM595.185 21.0234H596.954C597.243 21.0234 597.47 20.9544 597.634 20.8164C597.798 20.6784 597.88 20.4909 597.88 20.2539C597.88 19.9753 597.798 19.7565 597.634 19.5977C597.47 19.4362 597.243 19.3555 596.954 19.3555H595.185V21.0234ZM595.185 18.5H596.587C596.806 18.5 596.993 18.4687 597.15 18.4062C597.309 18.3437 597.43 18.2552 597.513 18.1406C597.599 18.0234 597.642 17.8854 597.642 17.7266C597.642 17.4948 597.547 17.3138 597.357 17.1836C597.167 17.0534 596.906 16.9883 596.575 16.9883H595.185V18.5ZM603.065 22.1211C602.502 22.1211 602.012 21.9922 601.592 21.7344C601.173 21.4766 600.848 21.1159 600.616 20.6523C600.384 20.1888 600.268 19.6471 600.268 19.0273C600.268 18.4049 600.384 17.8607 600.616 17.3945C600.848 16.9284 601.173 16.5664 601.592 16.3086C602.012 16.0508 602.502 15.9219 603.065 15.9219C603.627 15.9219 604.118 16.0508 604.538 16.3086C604.957 16.5664 605.282 16.9284 605.514 17.3945C605.746 17.8607 605.862 18.4049 605.862 19.0273C605.862 19.6471 605.746 20.1888 605.514 20.6523C605.282 21.1159 604.957 21.4766 604.538 21.7344C604.118 21.9922 603.627 22.1211 603.065 22.1211ZM603.069 21.1406C603.433 21.1406 603.736 21.0443 603.975 20.8516C604.215 20.6589 604.392 20.4023 604.506 20.082C604.624 19.7617 604.682 19.4089 604.682 19.0234C604.682 18.6406 604.624 18.2891 604.506 17.9687C604.392 17.6458 604.215 17.3867 603.975 17.1914C603.736 16.9961 603.433 16.8984 603.069 16.8984C602.702 16.8984 602.397 16.9961 602.155 17.1914C601.915 17.3867 601.737 17.6458 601.62 17.9687C601.505 18.2891 601.448 18.6406 601.448 19.0234C601.448 19.4089 601.505 19.7617 601.62 20.082C601.737 20.4023 601.915 20.6589 602.155 20.8516C602.397 21.0443 602.702 21.1406 603.069 21.1406ZM610.161 20.4141H611.357C611.372 20.6589 611.483 20.8477 611.689 20.9805C611.897 21.1133 612.166 21.1797 612.497 21.1797C612.833 21.1797 613.12 21.1081 613.357 20.9648C613.594 20.819 613.712 20.5937 613.712 20.2891C613.712 20.1068 613.666 19.9479 613.575 19.8125C613.487 19.6745 613.36 19.5677 613.196 19.4922C613.035 19.4167 612.844 19.3789 612.622 19.3789H611.646V18.4609H612.622C612.953 18.4609 613.2 18.3854 613.364 18.2344C613.528 18.0833 613.61 17.8945 613.61 17.668C613.61 17.4232 613.522 17.2266 613.345 17.0781C613.17 16.9271 612.927 16.8516 612.614 16.8516C612.297 16.8516 612.032 16.9232 611.821 17.0664C611.61 17.207 611.5 17.3893 611.489 17.6133H610.31C610.317 17.2773 610.419 16.9831 610.614 16.7305C610.812 16.4753 611.078 16.2773 611.411 16.1367C611.747 15.9935 612.129 15.9219 612.556 15.9219C613.001 15.9219 613.386 15.9935 613.712 16.1367C614.038 16.2799 614.289 16.4779 614.466 16.7305C614.646 16.9831 614.735 17.2734 614.735 17.6016C614.735 17.9323 614.636 18.2031 614.439 18.4141C614.243 18.6224 613.988 18.7721 613.673 18.8633V18.9258C613.905 18.9414 614.11 19.0117 614.29 19.1367C614.47 19.2617 614.61 19.4271 614.712 19.6328C614.814 19.8385 614.864 20.0716 614.864 20.332C614.864 20.6992 614.763 21.0169 614.56 21.2852C614.359 21.5534 614.08 21.7604 613.724 21.9062C613.37 22.0495 612.965 22.1211 612.509 22.1211C612.066 22.1211 611.669 22.0521 611.317 21.9141C610.969 21.7734 610.691 21.5755 610.485 21.3203C610.282 21.0651 610.174 20.763 610.161 20.4141ZM618.036 22.1328C617.656 22.1328 617.313 22.0625 617.005 21.9219C616.698 21.7786 616.454 21.5716 616.275 21.3008C616.098 21.0299 616.009 20.6979 616.009 20.3047C616.009 19.9661 616.074 19.6875 616.204 19.4687C616.335 19.25 616.51 19.0768 616.732 18.9492C616.953 18.8216 617.201 18.7253 617.474 18.6602C617.747 18.5951 618.026 18.5456 618.31 18.5117C618.669 18.4701 618.961 18.4362 619.185 18.4102C619.409 18.3815 619.572 18.3359 619.673 18.2734C619.775 18.2109 619.826 18.1094 619.826 17.9687V17.9414C619.826 17.6003 619.729 17.3359 619.536 17.1484C619.346 16.9609 619.063 16.8672 618.685 16.8672C618.292 16.8672 617.982 16.9544 617.755 17.1289C617.531 17.3008 617.376 17.4922 617.29 17.7031L616.193 17.4531C616.323 17.0885 616.513 16.7943 616.763 16.5703C617.016 16.3437 617.306 16.1797 617.634 16.0781C617.962 15.974 618.307 15.9219 618.669 15.9219C618.909 15.9219 619.163 15.9505 619.431 16.0078C619.702 16.0625 619.954 16.1641 620.189 16.3125C620.426 16.4609 620.62 16.6732 620.771 16.9492C620.922 17.2227 620.997 17.5781 620.997 18.0156V22H619.857V21.1797H619.81C619.734 21.3307 619.621 21.4792 619.47 21.625C619.319 21.7708 619.125 21.8919 618.888 21.9883C618.651 22.0846 618.367 22.1328 618.036 22.1328ZM618.29 21.1953C618.613 21.1953 618.889 21.1315 619.119 21.0039C619.35 20.8763 619.526 20.7096 619.646 20.5039C619.768 20.2956 619.829 20.0729 619.829 19.8359V19.0625C619.788 19.1042 619.707 19.1432 619.587 19.1797C619.47 19.2135 619.336 19.2435 619.185 19.2695C619.034 19.293 618.887 19.3151 618.744 19.3359C618.6 19.3542 618.48 19.3698 618.384 19.3828C618.158 19.4115 617.951 19.4596 617.763 19.5273C617.578 19.5951 617.43 19.6927 617.318 19.8203C617.208 19.9453 617.154 20.112 617.154 20.3203C617.154 20.6094 617.26 20.8281 617.474 20.9766C617.688 21.1224 617.96 21.1953 618.29 21.1953ZM622.773 22V16H627.668V22H626.523V17.0078H623.91V22H622.773ZM629.449 24.25V16H630.59V16.9727H630.687C630.755 16.8477 630.853 16.7031 630.98 16.5391C631.108 16.375 631.285 16.2318 631.512 16.1094C631.738 15.9844 632.038 15.9219 632.41 15.9219C632.894 15.9219 633.327 16.0443 633.707 16.2891C634.087 16.5339 634.385 16.8867 634.601 17.3477C634.82 17.8086 634.93 18.3633 634.93 19.0117C634.93 19.6602 634.822 20.2161 634.605 20.6797C634.389 21.1406 634.092 21.4961 633.715 21.7461C633.337 21.9935 632.906 22.1172 632.422 22.1172C632.057 22.1172 631.759 22.056 631.527 21.9336C631.298 21.8112 631.118 21.668 630.988 21.5039C630.858 21.3398 630.758 21.194 630.687 21.0664H630.617V24.25H629.449ZM630.594 19C630.594 19.4219 630.655 19.7917 630.777 20.1094C630.9 20.4271 631.077 20.6758 631.309 20.8555C631.54 21.0326 631.824 21.1211 632.16 21.1211C632.509 21.1211 632.801 21.0286 633.035 20.8437C633.269 20.6562 633.447 20.4023 633.566 20.082C633.689 19.7617 633.75 19.401 633.75 19C633.75 18.6042 633.69 18.2487 633.57 17.9336C633.453 17.6185 633.276 17.3698 633.039 17.1875C632.805 17.0052 632.512 16.9141 632.16 16.9141C631.822 16.9141 631.535 17.0013 631.301 17.1758C631.069 17.3503 630.893 17.5937 630.773 17.9062C630.654 18.2187 630.594 18.5833 630.594 19ZM638.986 22.1211C638.423 22.1211 637.932 21.9922 637.513 21.7344C637.094 21.4766 636.768 21.1159 636.536 20.6523C636.305 20.1888 636.189 19.6471 636.189 19.0273C636.189 18.4049 636.305 17.8607 636.536 17.3945C636.768 16.9284 637.094 16.5664 637.513 16.3086C637.932 16.0508 638.423 15.9219 638.986 15.9219C639.548 15.9219 640.039 16.0508 640.458 16.3086C640.877 16.5664 641.203 16.9284 641.435 17.3945C641.667 17.8607 641.782 18.4049 641.782 19.0273C641.782 19.6471 641.667 20.1888 641.435 20.6523C641.203 21.1159 640.877 21.4766 640.458 21.7344C640.039 21.9922 639.548 22.1211 638.986 22.1211ZM638.989 21.1406C639.354 21.1406 639.656 21.0443 639.896 20.8516C640.135 20.6589 640.312 20.4023 640.427 20.082C640.544 19.7617 640.603 19.4089 640.603 19.0234C640.603 18.6406 640.544 18.2891 640.427 17.9687C640.312 17.6458 640.135 17.3867 639.896 17.1914C639.656 16.9961 639.354 16.8984 638.989 16.8984C638.622 16.8984 638.318 16.9961 638.075 17.1914C637.836 17.3867 637.657 17.6458 637.54 17.9687C637.426 18.2891 637.368 18.6406 637.368 19.0234C637.368 19.4089 637.426 19.7617 637.54 20.082C637.657 20.4023 637.836 20.6589 638.075 20.8516C638.318 21.0443 638.622 21.1406 638.989 21.1406ZM645.833 22.1211C645.253 22.1211 644.753 21.9896 644.333 21.7266C643.917 21.4609 643.596 21.0951 643.373 20.6289C643.149 20.1628 643.037 19.6289 643.037 19.0273C643.037 18.418 643.151 17.8802 643.38 17.4141C643.61 16.9453 643.932 16.5794 644.349 16.3164C644.766 16.0534 645.257 15.9219 645.822 15.9219C646.277 15.9219 646.684 16.0065 647.041 16.1758C647.397 16.3424 647.685 16.5768 647.904 16.8789C648.125 17.181 648.257 17.5339 648.298 17.9375H647.162C647.099 17.6562 646.956 17.4141 646.732 17.2109C646.511 17.0078 646.214 16.9062 645.841 16.9062C645.516 16.9062 645.231 16.9922 644.986 17.1641C644.744 17.3333 644.555 17.5755 644.419 17.8906C644.284 18.2031 644.216 18.5729 644.216 19C644.216 19.4375 644.283 19.8151 644.416 20.1328C644.548 20.4505 644.736 20.6966 644.978 20.8711C645.223 21.0456 645.511 21.1328 645.841 21.1328C646.063 21.1328 646.263 21.0924 646.443 21.0117C646.625 20.9284 646.777 20.8099 646.9 20.6562C647.025 20.5026 647.112 20.3177 647.162 20.1016H648.298C648.257 20.4896 648.13 20.8359 647.919 21.1406C647.708 21.4453 647.426 21.6849 647.072 21.8594C646.72 22.0339 646.307 22.1211 645.833 22.1211ZM652.295 22.1211C651.732 22.1211 651.241 21.9922 650.822 21.7344C650.403 21.4766 650.077 21.1159 649.845 20.6523C649.614 20.1888 649.498 19.6471 649.498 19.0273C649.498 18.4049 649.614 17.8607 649.845 17.3945C650.077 16.9284 650.403 16.5664 650.822 16.3086C651.241 16.0508 651.732 15.9219 652.295 15.9219C652.857 15.9219 653.348 16.0508 653.767 16.3086C654.187 16.5664 654.512 16.9284 654.744 17.3945C654.976 17.8607 655.092 18.4049 655.092 19.0273C655.092 19.6471 654.976 20.1888 654.744 20.6523C654.512 21.1159 654.187 21.4766 653.767 21.7344C653.348 21.9922 652.857 22.1211 652.295 22.1211ZM652.299 21.1406C652.663 21.1406 652.965 21.0443 653.205 20.8516C653.444 20.6589 653.622 20.4023 653.736 20.082C653.853 19.7617 653.912 19.4089 653.912 19.0234C653.912 18.6406 653.853 18.2891 653.736 17.9687C653.622 17.6458 653.444 17.3867 653.205 17.1914C652.965 16.9961 652.663 16.8984 652.299 16.8984C651.931 16.8984 651.627 16.9961 651.385 17.1914C651.145 17.3867 650.967 17.6458 650.849 17.9687C650.735 18.2891 650.677 18.6406 650.677 19.0234C650.677 19.4089 650.735 19.7617 650.849 20.082C650.967 20.4023 651.145 20.6589 651.385 20.8516C651.627 21.0443 651.931 21.1406 652.299 21.1406ZM656.615 22V16H659.104C659.781 16 660.317 16.1445 660.713 16.4336C661.109 16.7201 661.307 17.1094 661.307 17.6016C661.307 17.9531 661.195 18.2318 660.971 18.4375C660.747 18.6432 660.45 18.7813 660.08 18.8516C660.348 18.8828 660.594 18.9635 660.818 19.0937C661.042 19.2214 661.222 19.3932 661.357 19.6094C661.495 19.8255 661.564 20.0833 661.564 20.3828C661.564 20.7005 661.482 20.9818 661.318 21.2266C661.154 21.4687 660.916 21.6589 660.604 21.7969C660.294 21.9323 659.92 22 659.482 22H656.615ZM657.713 21.0234H659.482C659.772 21.0234 659.998 20.9544 660.162 20.8164C660.326 20.6784 660.408 20.4909 660.408 20.2539C660.408 19.9753 660.326 19.7565 660.162 19.5977C659.998 19.4362 659.772 19.3555 659.482 19.3555H657.713V21.0234ZM657.713 18.5H659.115C659.334 18.5 659.522 18.4687 659.678 18.4062C659.837 18.3437 659.958 18.2552 660.041 18.1406C660.127 18.0234 660.17 17.8854 660.17 17.7266C660.17 17.4948 660.075 17.3138 659.885 17.1836C659.695 17.0534 659.434 16.9883 659.104 16.9883H657.713V18.5Z" fill="#080809"/>
</svg>
