<svg width="117" height="24" viewBox="0 0 117 24" fill="none" xmlns="http://www.w3.org/2000/svg">
<path d="M12.2241 7.25569L10.3258 18.6905H7.93608L9.51617 9.22104H4.89313L3.31303 18.6905H0.92334L2.82169 7.25569H12.2241Z" fill="#04171C"/>
<path d="M12.6275 18.6905L14.5259 7.25569H22.7201C23.5837 7.25569 24.2928 7.42133 24.8474 7.75261C25.4057 8.08017 25.7966 8.53615 26.0199 9.12054C26.247 9.70121 26.2991 10.3712 26.1762 11.1306C26.0497 11.8936 25.7742 12.5655 25.3499 13.1462C24.9293 13.7231 24.3821 14.1735 23.7084 14.4973C23.0346 14.8212 22.2567 14.9831 21.3745 14.9831H14.8162L15.1345 13.0457H21.3019C21.7709 13.0457 22.1711 12.9656 22.5024 12.8056C22.8374 12.6418 23.1035 12.4166 23.3008 12.13C23.4981 11.8396 23.6265 11.5065 23.686 11.1306C23.7493 10.7472 23.7288 10.414 23.6246 10.1311C23.5204 9.84824 23.3287 9.62863 23.0495 9.47229C22.7741 9.31224 22.4037 9.23221 21.9384 9.23221H16.6252L15.0451 18.6905H12.6275Z" fill="#04171C"/>
<path d="M37.9251 13.1294C37.7166 14.3503 37.3128 15.387 36.7135 16.2394C36.1179 17.0918 35.3902 17.7394 34.5304 18.1824C33.6742 18.6253 32.7511 18.8468 31.761 18.8468C30.7225 18.8468 29.8273 18.6104 29.0754 18.1377C28.3272 17.665 27.7856 16.9819 27.4506 16.0886C27.1156 15.1915 27.0523 14.1102 27.2608 12.8447C27.4618 11.62 27.8619 10.5815 28.4612 9.72913C29.0605 8.87301 29.7919 8.22161 30.6555 7.77494C31.5191 7.32455 32.4478 7.09935 33.4416 7.09935C34.4727 7.09935 35.3623 7.33758 36.1105 7.81403C36.8624 8.29048 37.404 8.97909 37.7352 9.87988C38.0702 10.7769 38.1335 11.8601 37.9251 13.1294ZM35.5186 12.8447C35.6489 12.0593 35.6433 11.4004 35.5019 10.8681C35.3642 10.3321 35.111 9.92641 34.7425 9.65096C34.374 9.37551 33.9088 9.23779 33.3467 9.23779C32.7362 9.23779 32.176 9.3904 31.6661 9.69563C31.1599 10.0009 30.7318 10.4438 30.3819 11.0245C30.0357 11.6014 29.7957 12.3031 29.6617 13.1294C29.5277 13.9185 29.5314 14.5774 29.6728 15.1059C29.818 15.6345 30.0767 16.0346 30.4489 16.3064C30.8249 16.5744 31.292 16.7084 31.8503 16.7084C32.4571 16.7084 33.0117 16.5595 33.5142 16.2617C34.0204 15.9602 34.4466 15.5228 34.7928 14.9496C35.139 14.3726 35.3809 13.671 35.5186 12.8447Z" fill="#04171C"/>
<path d="M45.0146 8.48403H47.5718C48.4912 8.48403 49.2728 8.67759 49.9168 9.06471C50.5607 9.45182 51.0242 9.99713 51.3071 10.7006C51.5937 11.4004 51.6569 12.223 51.4969 13.1685C51.3517 14.0842 51.0204 14.8826 50.503 15.5638C49.9856 16.2449 49.3417 16.7754 48.5712 17.155C47.8007 17.531 46.9557 17.719 46.0363 17.719H43.4791C42.5597 17.719 41.7743 17.5328 41.123 17.1606C40.4753 16.7847 40.0044 16.2561 39.7104 15.5749C39.42 14.8938 39.3512 14.0898 39.5038 13.1629C39.6638 12.2175 40.0063 11.3948 40.5311 10.6951C41.056 9.99155 41.7073 9.4481 42.4853 9.06471C43.2633 8.67759 44.1063 8.48403 45.0146 8.48403ZM44.6796 10.5052C44.1882 10.5052 43.7378 10.6039 43.3284 10.8011C42.9227 10.9947 42.5821 11.2888 42.3066 11.6833C42.0312 12.0779 41.8432 12.5711 41.7427 13.1629C41.6534 13.7287 41.685 14.1996 41.8376 14.5755C41.9902 14.9515 42.2378 15.2325 42.5802 15.4186C42.9227 15.6047 43.334 15.6978 43.8141 15.6978H46.3825C46.8738 15.6978 47.3187 15.6029 47.7169 15.413C48.1152 15.2232 48.4465 14.9403 48.7108 14.5643C48.9788 14.1884 49.1556 13.7231 49.2412 13.1685C49.3417 12.5767 49.3231 12.0835 49.1854 11.6889C49.0514 11.2943 48.8169 10.9984 48.4819 10.8011C48.1506 10.6039 47.7411 10.5052 47.2535 10.5052H44.6796ZM47.6555 7.05469L45.6678 19.1595H43.3731L45.3607 7.05469H47.6555Z" fill="#04171C"/>
<path d="M67.1381 7.25569L65.2397 18.6905H62.85L64.4301 9.22104H56.6504L55.0703 18.6905H52.6806L54.5789 7.25569H67.1381Z" fill="#04171C"/>
<path d="M67.5415 18.6905L69.4398 7.25569H73.9512C74.8148 7.25569 75.5239 7.42133 76.0785 7.75261C76.6368 8.08017 77.0277 8.53615 77.251 9.12054C77.4781 9.70121 77.5302 10.3712 77.4073 11.1306C77.2808 11.8936 77.0053 12.5655 76.581 13.1462C76.1604 13.7231 75.6132 14.1735 74.9395 14.4973C74.2657 14.8212 73.4878 14.9831 72.6056 14.9831H69.7302L70.0484 13.0457H72.533C73.002 13.0457 73.4022 12.9656 73.7335 12.8056C74.0685 12.6418 74.3346 12.4166 74.5319 12.13C74.7292 11.8396 74.8576 11.5065 74.9171 11.1306C74.9804 10.7472 74.96 10.414 74.8557 10.1311C74.7515 9.84824 74.5598 9.62863 74.2806 9.47229C74.0052 9.31224 73.6348 9.23221 73.1695 9.23221H71.5392L69.9591 18.6905H67.5415Z" fill="#04171C"/>
<path d="M89.1562 13.1294C88.9477 14.3503 88.5439 15.387 87.9446 16.2394C87.349 17.0918 86.6213 17.7394 85.7615 18.1824C84.9054 18.6253 83.9822 18.8468 82.9921 18.8468C81.9536 18.8468 81.0584 18.6104 80.3065 18.1377C79.5583 17.665 79.0167 16.9819 78.6817 16.0886C78.3467 15.1915 78.2835 14.1102 78.4919 12.8447C78.6929 11.62 79.093 10.5815 79.6923 9.72913C80.2916 8.87301 81.023 8.22161 81.8866 7.77494C82.7502 7.32455 83.6789 7.09935 84.6727 7.09935C85.7038 7.09935 86.5934 7.33758 87.3416 7.81403C88.0935 8.29048 88.6351 8.97909 88.9663 9.87988C89.3013 10.7769 89.3646 11.8601 89.1562 13.1294ZM86.7497 12.8447C86.88 12.0593 86.8744 11.4004 86.733 10.8681C86.5953 10.3321 86.3421 9.92641 85.9736 9.65096C85.6051 9.37551 85.1399 9.23779 84.5778 9.23779C83.9673 9.23779 83.4071 9.3904 82.8972 9.69563C82.391 10.0009 81.9629 10.4438 81.613 11.0245C81.2668 11.6014 81.0268 12.3031 80.8928 13.1294C80.7588 13.9185 80.7625 14.5774 80.9039 15.1059C81.0491 15.6345 81.3078 16.0346 81.68 16.3064C82.056 16.5744 82.5231 16.7084 83.0815 16.7084C83.6882 16.7084 84.2428 16.5595 84.7453 16.2617C85.2515 15.9602 85.6777 15.5228 86.0239 14.9496C86.3701 14.3726 86.612 13.671 86.7497 12.8447Z" fill="#04171C"/>
<path d="M90.0202 18.6905L91.9185 7.25569H99.5064L99.1714 9.24896H94.0012L93.6271 11.4823H95.4975C96.402 11.4823 97.1576 11.6293 97.7644 11.9234C98.3748 12.2137 98.814 12.625 99.082 13.1573C99.3538 13.6896 99.4301 14.3168 99.311 15.0389C99.1881 15.7573 98.9015 16.392 98.4511 16.9429C98.0044 17.49 97.4256 17.9181 96.7147 18.227C96.0075 18.536 95.2016 18.6905 94.2971 18.6905H90.0202ZM92.7616 16.7474H94.6209C95.0527 16.7474 95.4305 16.6693 95.7543 16.5129C96.0782 16.3529 96.3387 16.1426 96.536 15.882C96.737 15.6177 96.8636 15.3293 96.9157 15.0166C96.9901 14.5625 96.8803 14.1791 96.5863 13.8664C96.2959 13.55 95.8269 13.3918 95.1793 13.3918H93.32L92.7616 16.7474Z" fill="#04171C"/>
<path d="M102.962 11.4823H108.318C109.226 11.4823 109.984 11.6293 110.59 11.9234C111.201 12.2137 111.64 12.625 111.908 13.1573C112.18 13.6896 112.254 14.3168 112.131 15.0389C112.012 15.7573 111.727 16.392 111.277 16.9429C110.827 17.49 110.246 17.9181 109.535 18.227C108.828 18.536 108.022 18.6905 107.117 18.6905H100.21L102.108 7.25569H104.526L102.951 16.7474H107.441C107.873 16.7474 108.251 16.6693 108.575 16.5129C108.902 16.3529 109.165 16.1426 109.362 15.882C109.563 15.6177 109.688 15.3293 109.736 15.0166C109.814 14.5625 109.706 14.1791 109.412 13.8664C109.118 13.55 108.647 13.3918 108 13.3918H102.644L102.962 11.4823ZM116.866 7.25569L114.968 18.6905H112.556L114.454 7.25569H116.866Z" fill="#04171C"/>
<path d="M31.6825 20.834C31.7117 20.6895 31.7138 20.568 31.6887 20.4695C31.6636 20.3701 31.6109 20.2954 31.5304 20.2453C31.45 20.1944 31.3419 20.1689 31.206 20.1689C31.0514 20.1689 30.9145 20.1985 30.7954 20.2576C30.6763 20.3167 30.5776 20.4017 30.4992 20.5126C30.4209 20.6234 30.366 20.7568 30.3347 20.9128C30.3012 21.059 30.2981 21.1805 30.3253 21.2774C30.3535 21.3742 30.4089 21.4469 30.4914 21.4954C30.575 21.5438 30.6836 21.568 30.8174 21.568C30.9699 21.568 31.1047 21.5393 31.2217 21.4818C31.3398 21.4243 31.4374 21.341 31.5148 21.2318C31.5931 21.1226 31.649 20.99 31.6825 20.834Z" fill="#08B585"/>
<path d="M26.8133 22.5628L27.7074 18.9862C27.7507 18.8133 27.9537 18.7373 28.0998 18.8393L31.0066 20.8687L34.8362 18.8868C35.0307 18.7862 35.253 18.962 35.1999 19.1745L34.3057 22.7511C34.2625 22.924 34.0594 23 33.9133 22.898L31.0066 20.8687L27.177 22.8505C26.9825 22.9511 26.7602 22.7753 26.8133 22.5628Z" fill="#08B585"/>
<path fill-rule="evenodd" clip-rule="evenodd" d="M82.4503 7.03047C83.1809 6.75158 83.9508 6.61213 84.76 6.61213C85.698 6.61213 86.5273 6.7946 87.248 7.15953L88.4555 2.24316H83.6541L82.4503 7.03047Z" fill="#08B585"/>
<path d="M84.8572 3.69173C84.6377 4.6542 83.8981 5.69579 82.8912 5.07664C81.8844 4.45749 81.5115 3.89173 81.7204 2.97612C81.9292 2.0605 82.8201 1.39359 83.6864 1.5912C84.5526 1.78882 85.0768 2.72925 84.8572 3.69173Z" fill="#08B585"/>
<path d="M89.2345 4.71163C88.5758 5.44694 87.4239 5.99931 86.8435 4.96961C86.2631 3.9399 86.2113 3.26431 86.838 2.56479C87.4646 1.86528 88.5671 1.71398 89.2289 2.30682C89.8907 2.89965 89.8932 3.97632 89.2345 4.71163Z" fill="#08B585"/>
<path d="M87.5669 2.96721C87.3074 4.10465 86.4334 5.33557 85.2435 4.60387C84.0536 3.87217 83.6129 3.20357 83.8598 2.12152C84.1066 1.03946 85.1595 0.251327 86.1831 0.484859C87.2068 0.718391 87.8263 1.82978 87.5669 2.96721Z" fill="#08B585"/>
</svg>
