<svg width="32" height="32" viewBox="0 0 32 32" fill="none" xmlns="http://www.w3.org/2000/svg">
<g clip-path="url(#clip0_4_6322)">
<g clip-path="url(#clip1_4_6322)">
<path fill-rule="evenodd" clip-rule="evenodd" d="M23.332 14.0118H22.755V15.0404H23.332C23.9467 15.0404 24.0219 14.777 24.0219 14.5386C24.0219 14.4007 24.0219 14.0118 23.332 14.0118ZM22.755 13.6104H23.2316C23.8087 13.6104 23.8714 13.3219 23.8714 13.1086C23.8714 12.9079 23.8087 12.6319 23.2316 12.6319H22.755V13.6104ZM5.75772 13.8989H5.09288V15.0279H5.75772C6.13404 15.0279 6.37238 14.8021 6.37238 14.4634C6.37238 14.1121 6.13404 13.8989 5.75772 13.8989ZM5.09288 18.2391V19.3681H5.75772C6.13404 19.3681 6.37238 19.1423 6.37238 18.8036C6.37238 18.4524 6.13404 18.2391 5.75772 18.2391H5.09288ZM22.7926 2.12136C27.919 4.63506 31.4483 9.90539 31.4483 16C31.4483 20.7397 29.3138 24.9808 25.9537 27.8146V19.2803H27.3712V18.8789H25.9537V18.3646H25.891H25.4896V28.191C23.7112 29.5773 21.6215 30.583 19.343 31.0856V19.3681H18.9792V16.5582H18.5652V19.3681H17.2732V16.5582H16.8467V19.3681H15.5547V16.5582H15.1282V19.7821H18.8788V31.1806C17.9461 31.3563 16.9838 31.4483 16 31.4483C13.1929 31.4483 10.5606 30.6996 8.29201 29.3909L13.6856 18.6907L14.7644 16.5582H14.3003L13.4723 18.2015L12.6695 16.5582H12.2054L13.234 18.6155L7.91981 29.1692C6.90677 28.5463 5.97109 27.8098 5.13051 26.9774V19.7821H5.77026C6.37238 19.7821 6.79888 19.3807 6.79888 18.8036C6.79888 18.2266 6.37238 17.8252 5.77026 17.8252H5.10542V16.9722H6.56054V16.5582H4.67893V19.7821V26.5112C2.11787 23.754 0.551758 20.0599 0.551758 16C0.551758 11.9468 2.11276 8.25812 4.66638 5.50243V12.2305V15.4544H5.75772C6.35983 15.4544 6.78633 15.0529 6.78633 14.4759C6.78633 13.8989 6.35983 13.4975 5.75772 13.4975H5.09288V12.6445H6.548V12.2305H5.11797V5.03509C7.91021 2.26382 11.7552 0.551758 16 0.551758C16.4303 0.551758 16.8564 0.569347 17.2778 0.603845L9.7342 12.218L8.16618 14.6264V12.218H7.73969V15.4418H7.90276H7.94039H8.12855L9.70911 13.0459V15.4418H10.1356V12.4563L17.7918 0.654553C19.3959 0.839831 20.9252 1.27083 22.341 1.90894V12.5567V15.4418H23.3445C24.047 15.4418 24.4484 15.1157 24.4484 14.5261C24.4484 14.1749 24.3104 13.9114 24.0345 13.7609C24.2101 13.6104 24.2979 13.3846 24.2979 13.1086C24.2979 12.5441 23.9216 12.218 23.2442 12.218H22.7926V2.12136ZM11.1265 15.4418V15.4167L11.7662 12.218H13.4722V15.4418H13.0583V12.6445H12.1175L11.553 15.4418H11.1265ZM14.6264 15.4418H16.646V15.0278H15.0529V14.0118H16.4453V13.5978H15.0529V12.6445H16.646V12.218H14.6264V15.4418ZM18.2643 12.6319H17.2859V12.218H19.6567V12.6319H18.6908V15.4418H18.2643V12.6319ZM9.03165 16.5583L8.20374 18.189L7.37583 16.5583H6.9117L7.96541 18.6531L7.40092 19.7821H7.86505L9.49579 16.5583H9.03165ZM21.902 19.7821H19.8824V16.5583H21.902V16.9722H20.3089V17.9256H21.7013V18.3395H20.3089V19.3681H21.902V19.7821ZM22.3787 19.7821H24.3984V19.3681H22.8053V18.3395H24.1976V17.9256H22.8053V16.9722H24.3984V16.5583H22.3787V19.7821ZM10.0478 16.5583H11.7664V19.3681H12.1302V19.7821H9.04432V19.3681H9.48336L10.0478 16.5583ZM9.90986 19.3681H11.3273V16.9722H10.3865L9.90986 19.3681ZM26.7944 16.4453C26.6187 16.4453 26.4808 16.5081 26.3804 16.621C26.2926 16.5582 26.1797 16.5206 26.0543 16.5206C25.7156 16.5206 25.5023 16.759 25.5023 17.1604V17.7248H27.3714V17.1102C27.3714 16.6962 27.1581 16.4453 26.7944 16.4453ZM25.9037 17.3234V17.1729C25.9037 16.922 26.0041 16.922 26.0668 16.922C26.1421 16.922 26.2424 16.922 26.2424 17.1729V17.3234H26.2299H25.9037ZM26.6187 17.3234V17.1102C26.6187 16.8468 26.7316 16.8468 26.8069 16.8468C26.8822 16.8468 26.9825 16.8468 26.9825 17.1102V17.3234H26.97H26.6187ZM27.384 15.0404C27.384 15.5547 26.9701 15.9687 26.4307 15.9687C25.9038 15.9687 25.4773 15.5547 25.4773 15.0404C25.4773 14.5261 25.8913 14.1122 26.4307 14.1122C26.9701 14.1122 27.384 14.5136 27.384 15.0404ZM26.9826 15.0279C26.9826 14.7394 26.7443 14.501 26.4307 14.501C26.1296 14.501 25.8787 14.7268 25.8787 15.0279C25.8787 15.3289 26.1171 15.5673 26.4307 15.5673C26.7443 15.5673 26.9826 15.3289 26.9826 15.0279ZM27.3714 12.218H26.97V13.0584H26.6187V12.3309H26.2173V13.0584H25.9037V12.218H25.5023V13.4598H27.3714V12.218Z" fill="url(#paint0_linear_4_6322)"/>
</g>
</g>
<defs>
<linearGradient id="paint0_linear_4_6322" x1="0.551758" y1="16" x2="31.4483" y2="16" gradientUnits="userSpaceOnUse">
<stop stop-color="#00D07C"/>
<stop offset="1" stop-color="#0F9B91"/>
</linearGradient>
<clipPath id="clip0_4_6322">
<rect width="32" height="32" fill="white"/>
</clipPath>
<clipPath id="clip1_4_6322">
<rect width="32" height="32" fill="white"/>
</clipPath>
</defs>
</svg>
