<svg width="8" height="11" viewBox="0 0 8 11" fill="none" xmlns="http://www.w3.org/2000/svg">
<path d="M1.77845 5.02899C1.3805 5.02899 1.05148 4.93335 0.791387 4.74207C0.531297 4.5493 0.351509 4.27284 0.252021 3.9127C0.152534 3.55255 0.144006 3.12068 0.226438 2.61708C0.308871 2.11198 0.455971 1.6831 0.667738 1.33043C0.880926 0.977756 1.14528 0.709518 1.4608 0.525711C1.77774 0.341903 2.13376 0.25 2.52887 0.25C2.92398 0.25 3.25086 0.341903 3.50953 0.525711C3.7682 0.709518 3.94799 0.977756 4.0489 1.33043C4.14981 1.6816 4.16047 2.11049 4.08088 2.61708C4.00129 3.12218 3.8549 3.55479 3.64171 3.91494C3.42994 4.27508 3.16488 4.55079 2.84652 4.74207C2.52958 4.93335 2.17355 5.02899 1.77845 5.02899ZM1.94047 4.01581C2.14513 4.01581 2.32847 3.90373 2.49049 3.67957C2.65394 3.45393 2.77474 3.09976 2.85291 2.61708C2.90408 2.30326 2.91616 2.04623 2.88916 1.84599C2.86215 1.64425 2.80388 1.49556 2.71434 1.39992C2.6248 1.30278 2.51181 1.25422 2.37537 1.25422C2.17071 1.25422 1.98453 1.36405 1.81682 1.58372C1.65053 1.8019 1.52973 2.14635 1.4544 2.61708C1.40324 2.93986 1.39187 3.20436 1.42029 3.41059C1.44872 3.61681 1.50841 3.76923 1.59937 3.86786C1.69033 3.96649 1.80403 4.01581 1.94047 4.01581Z" fill="#721363"/>
<path d="M7.14439 0.312764L6.41955 4.90346H5.23422L5.77998 1.46044H5.7544L4.70551 2.06117L4.86754 1.00316L6.05286 0.312764H7.14439Z" fill="#721363"/>
<path d="M2.75914 5.53384L2.0343 10.1245H0.848978L1.39474 6.68151H1.36916L0.320272 7.28224L0.482295 6.22423L1.66762 5.53384H2.75914Z" fill="#721363"/>
<path d="M4.81534 10.2501C4.41739 10.2501 4.08837 10.1544 3.82828 9.96314C3.56819 9.77037 3.3884 9.49391 3.28891 9.13377C3.18942 8.77363 3.1809 8.34175 3.26333 7.83815C3.34576 7.33305 3.49286 6.90417 3.70463 6.5515C3.91782 6.19883 4.18217 5.93059 4.49769 5.74678C4.81463 5.56298 5.17065 5.47107 5.56576 5.47107C5.96087 5.47107 6.28776 5.56298 6.54642 5.74678C6.80509 5.93059 6.98488 6.19883 7.08579 6.5515C7.1867 6.90268 7.19736 7.33156 7.11777 7.83815C7.03818 8.34325 6.89179 8.77587 6.6786 9.13601C6.46683 9.49615 6.20177 9.77186 5.88341 9.96314C5.56647 10.1544 5.21045 10.2501 4.81534 10.2501ZM4.97736 9.23688C5.18202 9.23688 5.36536 9.1248 5.52739 8.90065C5.69083 8.675 5.81164 8.32083 5.88981 7.83815C5.94097 7.52433 5.95305 7.2673 5.92605 7.06706C5.89904 6.86532 5.84077 6.71663 5.75123 6.62099C5.66169 6.52385 5.5487 6.47529 5.41226 6.47529C5.2076 6.47529 5.02142 6.58512 4.85371 6.8048C4.68743 7.02297 4.56662 7.36742 4.49129 7.83815C4.44013 8.16093 4.42876 8.42544 4.45718 8.63166C4.48561 8.83788 4.5453 8.99031 4.63626 9.08894C4.72722 9.18756 4.84092 9.23688 4.97736 9.23688Z" fill="#721363"/>
</svg>
