<svg width="32" height="32" viewBox="0 0 32 32" fill="none" xmlns="http://www.w3.org/2000/svg">
<path fill-rule="evenodd" clip-rule="evenodd" d="M31 16C31 24.2843 24.2843 31 16 31C7.71573 31 1 24.2843 1 16C1 7.71573 7.71573 1 16 1C24.2843 1 31 7.71573 31 16ZM32 16C32 24.8366 24.8366 32 16 32C7.16344 32 0 24.8366 0 16C0 7.16344 7.16344 0 16 0C24.8366 0 32 7.16344 32 16ZM16.6277 19.8305L16.72 9.4541H15.2854L15.3777 19.8305H16.6277ZM15.2783 23.8078C15.4819 24.0067 15.7234 24.1061 16.0027 24.1061C16.1921 24.1061 16.3626 24.0611 16.5141 23.9711C16.6703 23.8765 16.7934 23.751 16.8834 23.5947C16.9781 23.4385 17.0254 23.268 17.0254 23.0834C17.0254 22.7993 16.9236 22.5578 16.72 22.3589C16.5212 22.1601 16.2821 22.0606 16.0027 22.0606C15.7234 22.0606 15.4819 22.1601 15.2783 22.3589C15.0794 22.5578 14.98 22.7993 14.98 23.0834C14.98 23.3627 15.0794 23.6042 15.2783 23.8078Z" fill="white"/>
</svg>
