<svg width="68" height="56" viewBox="0 0 68 56" fill="none" xmlns="http://www.w3.org/2000/svg">
<path fill-rule="evenodd" clip-rule="evenodd" d="M62.7419 50.2059H55.4375L58.0838 52.838C59.0747 53.8236 58.3672 55.5 56.9784 55.5H11.0216C9.63277 55.5 8.92535 53.8236 9.91625 52.838L12.5625 50.2059H5.25806C2.63279 50.2059 0.5 48.0883 0.5 45.4706V5.23529C0.5 2.61754 2.63279 0.5 5.25806 0.5H62.7419C65.3672 0.5 67.5 2.61754 67.5 5.23529V45.4706C67.5 48.0883 65.3672 50.2059 62.7419 50.2059ZM5.25806 2.55882H62.7419C64.2321 2.55882 65.4355 3.75964 65.4355 5.23529V45.4706C65.4355 46.9462 64.2321 48.1471 62.7419 48.1471H5.25806C3.76793 48.1471 2.56452 46.9462 2.56452 45.4706V5.23529C2.56452 3.75964 3.76793 2.55882 5.25806 2.55882ZM14.6969 50.9908C15.2018 50.4885 15.8872 50.2059 16.6025 50.2059H51.3976C52.1128 50.2059 52.7982 50.4885 53.3031 50.9908L55.7667 53.4412H12.2333L14.6969 50.9908Z" fill="#75797B"/>
</svg>
