<svg width="11" height="11" viewBox="0 0 11 11" fill="none" xmlns="http://www.w3.org/2000/svg">
<path d="M5.38565 0.849227C5.42102 0.739711 5.57705 0.739711 5.59425 0.849227L5.77298 1.98709C5.78806 2.08311 5.91653 2.09949 5.97 2.01221L6.60366 0.977899C6.66464 0.87835 6.81256 0.917096 6.80141 1.0297L6.68549 2.19963C6.67571 2.29835 6.7934 2.34645 6.86597 2.27339L7.72605 1.40763C7.80883 1.3243 7.93934 1.39936 7.90053 1.50797L7.49726 2.63645C7.46323 2.73167 7.56273 2.80848 7.64985 2.75424L8.6823 2.11142C8.78167 2.04955 8.88657 2.1562 8.82254 2.254L8.15726 3.27012C8.10112 3.35587 8.17619 3.45655 8.27238 3.42453L9.41234 3.04504C9.52205 3.00852 9.59476 3.14007 9.50953 3.22091L8.62403 4.06082C8.54931 4.1317 8.59523 4.24993 8.69445 4.24214L9.87028 4.14984C9.98345 4.14096 10.0194 4.28914 9.91832 4.34794L8.86825 4.95887C8.77964 5.01043 8.79352 5.13878 8.88953 5.15572L10.0274 5.35639C10.1369 5.37571 10.1338 5.5312 10.0232 5.56427L8.87456 5.90784C8.77763 5.93684 8.7586 6.06725 8.84537 6.10784L9.8737 6.58889C9.97267 6.63519 9.93075 6.78823 9.81765 6.79349L8.64257 6.84811C8.54341 6.85271 8.49267 6.97699 8.56475 7.03869L9.41896 7.76988C9.50118 7.84026 9.42305 7.98123 9.31452 7.95835L8.18685 7.72058C8.0917 7.70052 8.01243 7.81085 8.06529 7.88978L8.69172 8.82517C8.75201 8.9152 8.64259 9.03525 8.54544 8.98566L7.53605 8.47045C7.45087 8.42697 7.34806 8.51642 7.37838 8.60762L7.73766 9.68844C7.77224 9.79247 7.63841 9.88405 7.55875 9.81087L6.73105 9.05059C6.6612 8.98643 6.54131 9.04938 6.54718 9.14713L6.61674 10.3055C6.62343 10.4169 6.4736 10.4743 6.41643 10.3821L5.82243 9.42455C5.77231 9.34375 5.64286 9.37624 5.62391 9.47439L5.39938 10.6375C5.37777 10.7494 5.22134 10.7689 5.19026 10.6636L4.86729 9.56884C4.84004 9.47646 4.70917 9.47646 4.6666 9.56884L4.16208 10.6636C4.11352 10.7689 3.96034 10.7494 3.95729 10.6375L3.92564 9.47439C3.92297 9.37624 3.79891 9.34375 3.73538 9.42455L2.98258 10.3821C2.91013 10.4743 2.76981 10.4169 2.79499 10.3055L3.05665 9.14713C3.07872 9.04938 2.96927 8.98643 2.88878 9.05059L1.935 9.81087C1.8432 9.88405 1.72456 9.79247 1.77639 9.68844L2.31491 8.60762C2.36036 8.51642 2.27238 8.42697 2.17999 8.47045L1.08516 8.98566C0.97978 9.03525 0.890273 8.9152 0.965495 8.82517L1.74705 7.88978C1.813 7.81085 1.75202 7.70052 1.65354 7.72058L0.486445 7.95835C0.374116 7.98123 0.319367 7.84026 0.413254 7.76988L1.38873 7.03869C1.47104 6.97699 1.44091 6.85271 1.34251 6.84811L0.17649 6.79349C0.0642637 6.78823 0.0477152 6.63519 0.154367 6.58889L1.26247 6.10784C1.35597 6.06725 1.35857 5.93684 1.26645 5.90784L0.174766 5.56427C0.0696945 5.5312 0.0923853 5.37571 0.205101 5.35639L1.37621 5.15572C1.47503 5.13878 1.51019 5.01043 1.43014 4.95887L0.481382 4.34794C0.390067 4.28914 0.450571 4.14096 0.562269 4.14984L1.72279 4.24214C1.82072 4.24993 1.88624 4.1317 1.82328 4.06082L1.07707 3.22091C1.00525 3.14007 1.09977 3.00852 1.20343 3.04504L2.28045 3.42453C2.37133 3.45655 2.4631 3.35587 2.42118 3.27012L1.9244 2.254C1.87659 2.15621 1.99918 2.04955 2.08829 2.11142L3.01414 2.75424C3.09226 2.80848 3.2045 2.73167 3.18627 2.63645L2.97014 1.50797C2.94934 1.39936 3.0923 1.3243 3.16126 1.40763L3.87776 2.27339C3.93822 2.34645 4.06388 2.29835 4.07047 2.19963L4.14857 1.0297C4.15609 0.917097 4.31044 0.87835 4.35491 0.977899L4.81704 2.01221C4.85604 2.09949 4.98723 2.08311 5.01823 1.98709L5.38565 0.849227Z" fill="#E65A78"/>
</svg>
