<svg width="32" height="32" viewBox="0 0 32 32" fill="none" xmlns="http://www.w3.org/2000/svg">
<g id="bx:time-five">
<path id="Vector" d="M16 2.66699C8.64799 2.66699 2.66666 8.64833 2.66666 16.0003C2.66666 23.3523 8.64799 29.3337 16 29.3337C23.352 29.3337 29.3333 23.3523 29.3333 16.0003C29.3333 8.64833 23.352 2.66699 16 2.66699ZM16 26.667C10.1187 26.667 5.33332 21.8817 5.33332 16.0003C5.33332 10.119 10.1187 5.33366 16 5.33366C21.8813 5.33366 26.6667 10.119 26.6667 16.0003C26.6667 21.8817 21.8813 26.667 16 26.667Z" fill="#C75E67"/>
<path id="Vector_2" d="M17.3333 9.33301H14.6667V16.5517L19.0573 20.9423L20.9427 19.057L17.3333 15.4477V9.33301Z" fill="#C75E67"/>
</g>
</svg>
