<svg width="97" height="116" viewBox="0 0 97 116" fill="none" xmlns="http://www.w3.org/2000/svg">
<path d="M7.40538 0C7.40538 0 32.3026 5.62912 48.5 5.62912C64.6975 5.62912 89.5946 0 89.5946 0C89.5946 0 106.257 54.9139 89.5946 82.4263C78.8491 100.169 48.5 116 48.5 116C48.5 116 18.1509 100.169 7.40538 82.4263C-9.25672 54.9139 7.40538 0 7.40538 0Z" fill="#C75E67"/>
<path d="M82.8456 9.18781C82.8595 9.18479 82.8732 9.18179 82.8869 9.17883C82.9761 9.49491 83.0862 9.89144 83.2136 10.3624C83.5772 11.7064 84.0815 13.6559 84.6421 16.0712C85.7636 20.9034 87.1088 27.5919 88.0052 35.0206C88.902 42.4528 89.3466 50.602 88.678 58.3623C88.0088 66.1312 86.2293 73.4431 82.7305 79.2518C78.194 86.7831 69.45 93.9908 61.7332 99.3561C57.8921 102.027 54.3384 104.219 51.7452 105.743C50.449 106.505 49.3938 107.099 48.6639 107.502C48.398 107.649 48.1754 107.771 48 107.866C47.8246 107.771 47.602 107.649 47.3361 107.502C46.6062 107.099 45.551 106.505 44.2548 105.743C41.6616 104.219 38.1079 102.027 34.2668 99.3561C26.55 93.9908 17.806 86.7831 13.2695 79.2518C9.77066 73.4431 7.99124 66.1312 7.32197 58.3623C6.65343 50.602 7.09802 42.4528 7.99482 35.0206C8.89119 27.5919 10.2364 20.9034 11.3579 16.0712C11.9185 13.6559 12.4228 11.7064 12.7864 10.3624C12.9138 9.89144 13.0239 9.49491 13.1131 9.17883C13.1268 9.18179 13.1405 9.18479 13.1544 9.18781C13.7748 9.32256 14.6756 9.51483 15.8 9.74543C18.0484 10.2066 21.1927 10.8213 24.7774 11.4362C31.9308 12.6632 40.8973 13.9012 48 13.9012C55.1027 13.9012 64.0692 12.6632 71.2226 11.4362C74.8073 10.8213 77.9516 10.2066 80.2 9.74543C81.3244 9.51483 82.2252 9.32256 82.8456 9.18781Z" stroke="white" stroke-width="2"/>
<rect x="29" y="45" width="39" height="34" rx="12" stroke="white" stroke-width="2"/>
<path d="M39 44.6143C37.8954 44.6143 37 43.7188 37 42.6143L37 30.0002C37 27.2388 39.2386 25.0002 42 25.0002L54 25.0002C56.7614 25.0002 59 27.2388 59 30.0002L59 42.6143C59 43.7188 58.1046 44.6143 57 44.6143L39 44.6143Z" stroke="white" stroke-width="2"/>
<mask id="path-5-outside-1_219_4367" maskUnits="userSpaceOnUse" x="42" y="53.4385" width="13" height="20" fill="black">
<rect fill="white" x="42" y="53.4385" width="13" height="20"/>
<path fill-rule="evenodd" clip-rule="evenodd" d="M49.8846 65.0673C49.8846 64.1837 50.4965 63.4409 51.2191 62.9323C52.3012 62.1707 53 60.9655 53 59.609C53 57.3057 50.9853 55.4385 48.5 55.4385C46.0147 55.4385 44 57.3057 44 59.609C44 60.9654 44.6988 62.1707 45.7809 62.9323C46.5034 63.4409 47.1154 64.1836 47.1154 65.0673V69.7733C47.1154 70.538 47.7353 71.1579 48.5 71.1579C49.2647 71.1579 49.8846 70.538 49.8846 69.7733V65.0673Z"/>
</mask>
<path d="M45.7809 62.9323L44.6297 64.5678L45.7809 62.9323ZM51 59.609C51 60.2493 50.6737 60.8705 50.068 61.2968L52.3702 64.5678C53.9288 63.4708 55 61.6816 55 59.609H51ZM48.5 57.4385C50.0266 57.4385 51 58.5507 51 59.609H55C55 56.0606 51.9439 53.4385 48.5 53.4385V57.4385ZM46 59.609C46 58.5507 46.9734 57.4385 48.5 57.4385V53.4385C45.0561 53.4385 42 56.0606 42 59.609H46ZM46.932 61.2968C46.3263 60.8705 46 60.2493 46 59.609H42C42 61.6816 43.0712 63.4708 44.6297 64.5678L46.932 61.2968ZM49.1154 69.7733V65.0673H45.1154V69.7733H49.1154ZM48.5 69.1579C48.8398 69.1579 49.1154 69.4334 49.1154 69.7733H45.1154C45.1154 71.6426 46.6307 73.1579 48.5 73.1579V69.1579ZM47.8846 69.7733C47.8846 69.4334 48.1601 69.1579 48.5 69.1579V73.1579C50.3692 73.1579 51.8846 71.6426 51.8846 69.7733H47.8846ZM47.8846 65.0673V69.7733H51.8846V65.0673H47.8846ZM44.6297 64.5678C44.8447 64.7191 44.9866 64.8675 45.0624 64.9797C45.132 65.0826 45.1154 65.1058 45.1154 65.0673H49.1154C49.1154 63.2241 47.8708 61.9576 46.932 61.2968L44.6297 64.5678ZM50.068 61.2968C49.1292 61.9576 47.8846 63.2241 47.8846 65.0673H51.8846C51.8846 65.1058 51.8679 65.0826 51.9375 64.9797C52.0134 64.8675 52.1553 64.7191 52.3702 64.5678L50.068 61.2968Z" fill="white" mask="url(#path-5-outside-1_219_4367)"/>
</svg>
