<svg width="32" height="32" viewBox="0 0 32 32" fill="none" xmlns="http://www.w3.org/2000/svg">
<circle cx="16" cy="16" r="16" fill="#C75E67"/>
<path d="M17.1657 9.45455L16.981 19.8168H15.0137L14.829 9.45455H17.1657ZM16.0009 24.1349C15.6079 24.1349 15.2717 23.9976 14.9924 23.723C14.713 23.4437 14.5757 23.1075 14.5804 22.7145C14.5757 22.3262 14.713 21.9948 14.9924 21.7202C15.2717 21.4408 15.6079 21.3011 16.0009 21.3011C16.3844 21.3011 16.7158 21.4408 16.9952 21.7202C17.2746 21.9948 17.4166 22.3262 17.4213 22.7145C17.4166 22.9749 17.348 23.214 17.2154 23.4318C17.0875 23.6449 16.9171 23.8153 16.704 23.9432C16.4909 24.071 16.2566 24.1349 16.0009 24.1349Z" fill="white"/>
</svg>
