<svg width="116" height="95" viewBox="0 0 116 95" fill="none" xmlns="http://www.w3.org/2000/svg">
<path fill-rule="evenodd" clip-rule="evenodd" d="M16.3698 92.3139C16.3718 92.4927 16.4003 92.6698 16.4528 92.8395C16.4883 92.9541 16.5348 93.0652 16.5915 93.1711C16.8889 93.7264 17.4674 94.1364 18.2165 94.1364H97.7835C98.5326 94.1364 99.1111 93.7264 99.4085 93.1711C99.4652 93.0652 99.5117 92.9541 99.5472 92.8395C99.5705 92.7642 99.5891 92.6875 99.6027 92.6098C99.4593 93.4263 98.7691 94.1359 97.7836 94.1359H18.2165C17.1134 94.1359 16.3802 93.2468 16.3698 92.3139ZM23.0022 84.992C23.0023 84.9918 23.0025 84.9917 23.0027 84.9915H8.23789C4.16636 84.9915 0.865723 81.7163 0.865723 77.676V8.17871C0.865723 7.89071 0.882494 7.6066 0.91512 7.32728C0.88246 7.60674 0.865672 7.891 0.865672 8.17914V77.6765C0.865672 81.7167 4.16631 84.992 8.23784 84.992H23.0022ZM114.985 79.1508C114.297 82.4841 111.325 84.9915 107.762 84.9915H92.9974C92.9976 84.9917 92.9978 84.9918 92.9979 84.992H107.762C111.325 84.992 114.297 82.4844 114.985 79.1508ZM107.762 85.8556H95.1157L99.6972 90.402C101.413 92.1044 100.188 95 97.7835 95H18.2165C15.812 95 14.5872 92.1044 16.3028 90.402L20.8843 85.8556H8.23784C3.69259 85.8556 0 82.198 0 77.6765V8.17914C0 3.65757 3.69259 0 8.23784 0H107.762C112.307 0 116 3.65757 116 8.17914V77.6765C116 82.1981 112.307 85.8556 107.762 85.8556ZM8.23784 3.55615H107.762C110.342 3.55615 112.426 5.6303 112.426 8.17914V77.6765C112.426 80.2253 110.342 82.2995 107.762 82.2995H8.23784C5.65791 82.2995 3.57439 80.2253 3.57439 77.6765V8.17914C3.57439 5.63029 5.6579 3.55615 8.23784 3.55615ZM24.5797 87.2113C25.4539 86.3438 26.6406 85.8556 27.8789 85.8556H88.1211C89.3595 85.8556 90.5461 86.3438 91.4203 87.2113L95.6857 91.4438H20.3143L24.5797 87.2113ZM88.1211 84.992C89.5875 84.992 90.9939 85.57 92.0308 86.599L97.7831 92.307H97.7836L92.0309 86.5985C90.9939 85.5696 89.5876 84.9915 88.1212 84.9915H27.8789C26.4125 84.9915 25.0062 85.5696 23.9692 86.5985L18.2165 92.307H18.2169L23.9692 86.599C25.0061 85.57 26.4125 84.992 27.8789 84.992H88.1211ZM8.23784 2.69251H107.762C110.816 2.69251 113.291 5.14896 113.291 8.17914V77.6765C113.291 77.6763 113.291 77.6762 113.291 77.676V8.17871C113.291 5.14853 110.816 2.69208 107.762 2.69208H8.23789C5.40335 2.69208 3.06699 4.80866 2.7463 7.53599C3.06718 4.80887 5.40345 2.69251 8.23784 2.69251Z" fill="#C75E67"/>
<circle cx="58" cy="44" r="16" fill="#C75E67"/>
<path d="M59.1657 37.4545L58.981 47.8168H57.0137L56.829 37.4545H59.1657ZM58.0009 52.1349C57.6079 52.1349 57.2717 51.9976 56.9924 51.723C56.713 51.4437 56.5757 51.1075 56.5804 50.7145C56.5757 50.3262 56.713 49.9948 56.9924 49.7202C57.2717 49.4408 57.6079 49.3011 58.0009 49.3011C58.3844 49.3011 58.7158 49.4408 58.9952 49.7202C59.2746 49.9948 59.4166 50.3262 59.4213 50.7145C59.4166 50.9749 59.348 51.214 59.2154 51.4318C59.0875 51.6449 58.9171 51.8153 58.704 51.9432C58.4909 52.071 58.2566 52.1349 58.0009 52.1349Z" fill="white"/>
</svg>
